<svg aria-hidden="true" focusable="false" data-prefix="far" data-icon="radio-alt" role="img" xmlns="http://www.w3.org/2000/svg" viewBox="0 0 512 512" class="svg-inline--fa fa-radio-alt fa-w-16 fa-7x"><path fill="currentColor" d="M209 368h-64a16 16 0 0 0-16 16v16a16 16 0 0 0 16 16h64a16 16 0 0 0 16-16v-16a16 16 0 0 0-16-16zm144 56a72 72 0 1 0-72-72 72.09 72.09 0 0 0 72 72zm96-296H212.5l288.83-81.21a16 16 0 0 0 11.07-19.74l-4.33-15.38A16 16 0 0 0 488.33.6L47.68 124.5A64 64 0 0 0 1 186.11V448a64 64 0 0 0 64 64h384a64 64 0 0 0 64-64V192a64 64 0 0 0-64-64zm16 320a16 16 0 0 1-16 16H65a16 16 0 0 1-16-16V256h416zM113 336h128a16 16 0 0 0 16-16v-16a16 16 0 0 0-16-16H113a16 16 0 0 0-16 16v16a16 16 0 0 0 16 16z" class=""></path></svg>
