<svg class="icon" viewBox="0 0 1024 1024" version="1.1" xmlns="http://www.w3.org/2000/svg" data-darkreader-inline-fill="" width="200" height="200"><path d="M475.3408 850.5344h-266.24a37.2736 37.2736 0 0 1-37.2736-37.2736v-266.24a37.2736 37.2736 0 1 1 74.5472 0v228.9664h228.9664a37.2736 37.2736 0 0 1 0 74.5472zM830.3104 495.5648a37.2736 37.2736 0 0 1-37.2736-37.2736V229.3248h-228.9664a37.2736 37.2736 0 1 1 0-74.5472h266.24a37.2736 37.2736 0 0 1 37.2736 37.2736v266.24a37.2736 37.2736 0 0 1-37.2736 37.2736z"></path></svg>