<?xml version="1.0" encoding="iso-8859-1"?>
<!-- Generator: Adobe Illustrator 19.0.0, SVG Export Plug-In . SVG Version: 6.00 Build 0)  -->
<svg version="1.1" id="Layer_1" xmlns="http://www.w3.org/2000/svg" xmlns:xlink="http://www.w3.org/1999/xlink" x="0px" y="0px"
	 viewBox="0 0 512 512" style="enable-background:new 0 0 512 512;" xml:space="preserve">
<g>
	<g>
		<path d="M512,217.6c0-31.027-22.426-64-64-64H274.739c9.847-58.163,3.968-105.412-17.058-132.344C246.972,7.552,232.738,0,217.6,0
			c-48.529,0-61.065,47.539-73.19,93.517c-7.45,28.254-16.222,59.691-32.393,87.629c-2.97-1.212-6.204-1.946-9.617-1.946H25.6
			C11.46,179.2,0,190.66,0,204.8v281.6C0,500.54,11.46,512,25.6,512h76.8c9.813,0,18.074-5.709,22.366-13.824
			C134.775,506.027,148.284,512,166.4,512h204.8c30.225,0,53.248-13.73,63.164-37.675c6.195-14.942,6.306-32.358,1.178-48.708
			c10.999-6.426,19.396-15.949,24.422-28.092c6.195-14.942,6.306-32.358,1.178-48.708c11-6.426,19.396-15.949,24.422-28.092
			c6.46-15.599,6.306-33.877,0.469-50.842C503.066,257.527,512,237.175,512,217.6z M102.4,460.8v25.6H25.6V204.8h76.8V460.8z
			 M448,256c25.6,25.6,25.6,76.8-25.6,76.8c25.6,25.6,25.6,76.8-25.6,76.8c25.6,25.6,25.6,76.8-25.6,76.8c-25.6,0-173.329,0-204.8,0
			c-31.462,0-38.4-25.6-38.4-25.6v-256c51.2-76.8,38.4-179.2,89.6-179.2c25.6,0,51.2,51.2,25.6,153.6c102.4,0,153.6,0,204.8,0
			C499.2,179.2,499.2,256,448,256z"/>
	</g>
</g>
<g>
</g>
<g>
</g>
<g>
</g>
<g>
</g>
<g>
</g>
<g>
</g>
<g>
</g>
<g>
</g>
<g>
</g>
<g>
</g>
<g>
</g>
<g>
</g>
<g>
</g>
<g>
</g>
<g>
</g>
</svg>
