<svg aria-hidden="true" focusable="false" data-prefix="fas" data-icon="list-music" role="img" xmlns="http://www.w3.org/2000/svg" viewBox="0 0 512 512" class="svg-inline--fa fa-list-music fa-w-16 fa-9x"><path fill="currentColor" d="M16 256h256a16 16 0 0 0 16-16v-32a16 16 0 0 0-16-16H16a16 16 0 0 0-16 16v32a16 16 0 0 0 16 16zm0-128h256a16 16 0 0 0 16-16V80a16 16 0 0 0-16-16H16A16 16 0 0 0 0 80v32a16 16 0 0 0 16 16zm128 192H16a16 16 0 0 0-16 16v32a16 16 0 0 0 16 16h128a16 16 0 0 0 16-16v-32a16 16 0 0 0-16-16zM470.94 1.33l-96.53 28.51A32 32 0 0 0 352 60.34V360a148.76 148.76 0 0 0-48-8c-61.86 0-112 35.82-112 80s50.14 80 112 80 112-35.82 112-80V148.15l73-21.39a32 32 0 0 0 23-30.71V32a32 32 0 0 0-41.06-30.67z" class=""></path></svg>