<svg fill="#000000" xmlns="http://www.w3.org/2000/svg"  viewBox="0 0 30 30" width="30px" height="30px"><path d="M 5 3 C 3.895 3 3 3.895 3 5 L 3 20 C 3 21.105 3.895 22 5 22 L 9 22 L 9 26 C 9 26.552 9.448 27 10 27 C 10.3377 27 10.621648 26.821033 10.802734 26.564453 L 10.818359 26.570312 L 14.25 22 L 25 22 C 26.105 22 27 21.105 27 20 L 27 5 C 27 3.895 26.105 3 25 3 L 5 3 z M 11.5 9 C 12.881 9 14 10.119 14 11.5 L 14 12 C 14 14.214 12.899594 16.269094 11.058594 17.496094 L 10.554688 17.832031 L 9.4453125 16.167969 L 9.9492188 15.832031 C 10.647219 15.367031 11.186063 14.728094 11.539062 13.996094 C 11.525062 13.996094 11.513 14 11.5 14 C 10.119 14 9 12.881 9 11.5 C 9 10.119 10.119 9 11.5 9 z M 18.5 9 C 19.881 9 21 10.119 21 11.5 L 21 12 C 21 14.214 19.899594 16.269094 18.058594 17.496094 L 17.554688 17.832031 L 16.445312 16.167969 L 16.949219 15.832031 C 17.647219 15.367031 18.186063 14.728094 18.539062 13.996094 C 18.525063 13.996094 18.513 14 18.5 14 C 17.119 14 16 12.881 16 11.5 C 16 10.119 17.119 9 18.5 9 z"/></svg>