<?xml version="1.0" standalone="no"?><!DOCTYPE svg PUBLIC "-//W3C//DTD SVG 1.1//EN" "http://www.w3.org/Graphics/SVG/1.1/DTD/svg11.dtd"><svg t="1603300509135" class="icon" viewBox="0 0 1024 1024" version="1.1" xmlns="http://www.w3.org/2000/svg" p-id="1150" xmlns:xlink="http://www.w3.org/1999/xlink" width="200" height="200"><defs><style type="text/css"></style></defs><path d="M512 949.138286c238.72 0 437.138286-198.418286 437.138286-437.138286 0-239.140571-198.857143-437.138286-437.577143-437.138286C272.438857 74.861714 74.88 272.859429 74.88 512c0 238.72 197.997714 437.138286 437.138286 437.138286z m126.848-346.697143c29.586286 0 59.574857-6.436571 77.586286-12.873143 4.699429-1.28 7.698286-1.718857 10.276571-1.718857 6.857143 0 14.153143 6.016 14.153143 14.994286 0 1.718857-0.438857 7.314286-2.578286 12.873142-30.866286 78.006857-119.588571 140.982857-222.427428 140.982858-141.001143 0-248.576-100.699429-248.576-241.700572 0-100.717714 59.574857-196.717714 148.297143-231.862857 5.558857-2.139429 10.697143-2.56 13.714285-2.56a13.897143 13.897143 0 0 1 14.134857 13.714286c0 2.139429-0.420571 5.558857-2.56 11.154285-7.734857 20.114286-15.012571 58.276571-15.012571 85.266286 0 129.865143 83.145143 211.712 212.992 211.712z" p-id="1151" fill="#000000"></path></svg>