<?xml version="1.0" encoding="utf-8"?>
<!-- Generator: Adobe Illustrator 22.1.0, SVG Export Plug-In . SVG Version: 6.00 Build 0)  -->
<svg version="1.1" focusable="false" xmlns="http://www.w3.org/2000/svg" xmlns:xlink="http://www.w3.org/1999/xlink"
	 x="0px" y="0px" viewBox="0 0 30 30" style="enable-background:new 0 0 30 30;" xml:space="preserve">
<path fill="currentColor" d="M15,0C6.7,0,0,6.7,0,15s6.7,15,15,15s15-6.7,15-15S23.3,0,15,0z M11.9,10.6c0.4,0,0.7,0.1,1,0.1s0.6,0,0.9,0.1
	c0.3,0,0.6,0,1,0c0.3,0,0.7,0,1.2,0c0.5,0,0.9,0,1.2,0c0.3,0,0.6,0,0.9,0c0.3,0,0.5,0,0.7,0c0.2,0,0.5-0.1,0.8-0.1v1.7l0,0l0,0l0,0
	c-0.3,0-0.5,0-0.8-0.1s-0.5,0-0.7,0c-0.3,0-0.6,0-0.9,0c-0.3,0-0.8,0-1.2,0c-0.5,0-0.9,0-1.2,0c-0.3,0-0.7,0-1,0c-0.3,0-0.6,0-0.9,0
	c-0.3,0-0.6,0-0.9,0.1L11.9,10.6L11.9,10.6z M9.1,6C9.4,6.4,9.7,6.9,10,7.3s0.6,1,0.9,1.5l-1.7,1l0,0C8.9,9.2,8.6,8.7,8.4,8.2
	C8.1,7.7,7.8,7.3,7.5,6.9L9.1,6z M9.9,21.6c-0.1,0.1-0.3,0.3-0.4,0.4c-0.1,0.1-0.2,0.2-0.3,0.4c-0.1,0.1-0.2,0.3-0.3,0.4
	c-0.1,0.1-0.2,0.3-0.3,0.5c-0.2-0.3-0.4-0.6-0.6-0.9c-0.2-0.3-0.4-0.5-0.6-0.7c0.3-0.3,0.6-0.7,0.7-1.2C8.3,20,8.3,19.5,8.3,19v-5.9
	c-0.6,0-1.1,0-1.5,0c-0.3,0-0.6,0-0.9,0.1v-1.8c0.3,0.1,0.6,0.1,0.9,0.1c0.3,0,0.7,0,1.1,0c0.4,0,0.8,0,1.2,0c0.3,0,0.7-0.1,0.9-0.1
	c-0.1,0.3-0.1,0.7-0.1,1.1c0,0.4,0,0.9,0,1.3v5.8c0.3-0.3,0.6-0.6,0.9-0.9c0.3-0.3,0.5-0.6,0.8-0.9c0.1,0.4,0.1,0.7,0.2,0.9
	c0.1,0.2,0.2,0.4,0.4,0.6L9.9,21.6L9.9,21.6z M14.3,19.5v1.8h-1.7c0.1-0.4,0.2-0.8,0.2-1.3c0-0.5,0-0.9,0-1.4v-2.8
	c0-0.4,0-0.8,0-1.2c0-0.4-0.1-0.7-0.1-0.9c0.2,0,0.3,0,0.5,0.1c0.2,0,0.4,0,0.6,0c0.2,0,0.5,0,0.8,0c0.3,0,0.7,0,1.1,0h1.1
	c0.3,0,0.6,0,0.8,0c0.2,0,0.4,0,0.5,0c0.1,0,0.3,0,0.4-0.1c-0.1,0.2-0.1,0.5-0.1,0.9c0,0.4,0,0.8,0,1.2v2.5c0,0.1,0,0.3,0,0.5
	c0,0.2,0,0.4,0,0.6c0,0.2,0,0.4,0.1,0.6c0,0.2,0,0.4,0.1,0.6h-1.7v-1L14.3,19.5L14.3,19.5z M22.6,7.5c0,0.1,0,0.3,0,0.5
	c0,0.2,0,0.4,0,0.6v12.7c0,0.4,0,0.7-0.1,1c-0.1,0.3-0.2,0.5-0.4,0.6c-0.2,0.2-0.5,0.3-1,0.4c-0.4,0.1-1,0.2-1.8,0.3
	c0-0.3-0.1-0.7-0.2-1.1c-0.1-0.4-0.4-0.8-0.7-1.1c0.5,0.1,1,0.1,1.3,0.1c0.3,0,0.6,0,0.7,0c0.2,0,0.3-0.1,0.3-0.2
	c0.1-0.1,0.1-0.2,0.1-0.4V8.7h-4.1c-0.5,0-0.9,0-1.2,0c-0.4,0-0.7,0-1.1,0c-0.3,0-0.7,0-1,0.1c-0.3,0-0.6,0.1-1,0.1V7.2
	c0.3,0,0.6,0,0.9,0.1c0.3,0,0.6,0,0.9,0c0.3,0,0.7,0,1.2,0H17c0.8,0,1.4,0,2,0c0.5,0,1,0,1.4,0c0.4,0,0.8,0,1.1,0
	c0.3,0,0.7-0.1,1.1-0.1l0,0C22.6,7.3,22.6,7.4,22.6,7.5z"/>
<path fill="currentColor" d="M14.3,15h2.8v3.4h-2.8L14.3,15L14.3,15z"/>
</svg>
