<svg width="24" height="24" viewBox="0 0 24 24" fill="none" xmlns="http://www.w3.org/2000/svg">
<path d="M10.5 1.5C10.5 0.671573 11.1716 0 12 0C12.8284 0 13.5 0.671573 13.5 1.5V2.5C13.5 3.32843 12.8284 4 12 4C11.1716 4 10.5 3.32843 10.5 2.5V1.5Z" fill="currentColor"/>
<path d="M10.5 21.5C10.5 20.6716 11.1716 20 12 20C12.8284 20 13.5 20.6716 13.5 21.5V22.5C13.5 23.3284 12.8284 24 12 24C11.1716 24 10.5 23.3284 10.5 22.5V21.5Z" fill="currentColor"/>
<path d="M24 12C24 11.1716 23.3284 10.5 22.5 10.5H21.5C20.6716 10.5 20 11.1716 20 12C20 12.8284 20.6716 13.5 21.5 13.5H22.5C23.3284 13.5 24 12.8284 24 12Z" fill="currentColor"/>
<path d="M2.5 10.5C3.32843 10.5 4 11.1716 4 12C4 12.8284 3.32843 13.5 2.5 13.5H1.5C0.671573 13.5 0 12.8284 0 12C0 11.1716 0.671573 10.5 1.5 10.5H2.5Z" fill="currentColor"/>
<path d="M20.4853 3.51472C19.8995 2.92893 18.9497 2.92893 18.364 3.51472L17.6569 4.22182C17.0711 4.80761 17.0711 5.75736 17.6569 6.34314C18.2426 6.92893 19.1924 6.92893 19.7782 6.34314L20.4853 5.63604C21.0711 5.05025 21.0711 4.1005 20.4853 3.51472Z" fill="currentColor"/>
<path d="M4.22181 17.6569C4.8076 17.0711 5.75734 17.0711 6.34313 17.6569C6.92892 18.2426 6.92892 19.1924 6.34313 19.7782L5.63602 20.4853C5.05024 21.0711 4.10049 21.0711 3.5147 20.4853C2.92892 19.8995 2.92892 18.9497 3.5147 18.364L4.22181 17.6569Z" fill="currentColor"/>
<path d="M3.5147 3.51472C2.92891 4.1005 2.92891 5.05025 3.5147 5.63604L4.22181 6.34315C4.80759 6.92893 5.75734 6.92893 6.34313 6.34315C6.92891 5.75736 6.92891 4.80761 6.34313 4.22183L5.63602 3.51472C5.05023 2.92893 4.10049 2.92893 3.5147 3.51472Z" fill="currentColor"/>
<path d="M17.6569 19.7782C17.0711 19.1924 17.0711 18.2426 17.6569 17.6569C18.2426 17.0711 19.1924 17.0711 19.7782 17.6569L20.4853 18.364C21.0711 18.9497 21.0711 19.8995 20.4853 20.4853C19.8995 21.0711 18.9497 21.0711 18.364 20.4853L17.6569 19.7782Z" fill="currentColor"/>
<path d="M12 19C15.866 19 19 15.866 19 12C19 8.13401 15.866 5 12 5C8.13401 5 5 8.13401 5 12C5 15.866 8.13401 19 12 19Z" fill="currentColor"/>
</svg>
