<svg width="41" height="40" viewBox="0 0 41 40" fill="none" xmlns="http://www.w3.org/2000/svg">
<path d="M9.72705 28.9858C9.72705 31.6978 11.1207 33.1041 13.8077 33.1041H27.1796C29.8666 33.1041 31.2603 31.6978 31.2603 28.9858V10.039C31.2603 7.33955 29.8666 5.92075 27.1796 5.92075H13.8077C11.1207 5.92075 9.72705 7.33955 9.72705 10.039V28.9858ZM14.9 12.9897C14.2346 12.9897 13.6821 12.4372 13.6821 11.7718C13.6821 11.1188 14.2346 10.5538 14.9 10.5538C15.5655 10.5538 16.118 11.1063 16.118 11.7718C16.118 12.4498 15.5655 12.9897 14.9 12.9897ZM18.5914 12.6381C18.1143 12.6381 17.7251 12.2489 17.7251 11.7718C17.7251 11.3072 18.1143 10.918 18.5914 10.918H26.4514C26.9159 10.918 27.3052 11.3072 27.3052 11.7718C27.3052 12.2489 26.9159 12.6381 26.4514 12.6381H18.5914ZM14.9 16.882C14.222 16.882 13.6821 16.3295 13.6821 15.6641C13.6821 14.9986 14.222 14.4587 14.9 14.4587C15.5655 14.4587 16.118 14.986 16.118 15.6641C16.118 16.3295 15.5655 16.882 14.9 16.882ZM18.5914 16.5178C18.1018 16.5178 17.7251 16.1412 17.7251 15.6641C17.7251 15.1869 18.1018 14.8103 18.5914 14.8103H26.4514C26.9285 14.8103 27.3052 15.1869 27.3052 15.6641C27.3052 16.1412 26.9285 16.5178 26.4514 16.5178H18.5914ZM14.9 20.9626C14.2346 20.9626 13.6821 20.3976 13.6821 19.7447C13.6821 19.0792 14.2346 18.5268 14.9 18.5268C15.5655 18.5268 16.118 19.0667 16.118 19.7447C16.118 20.4101 15.5655 20.9626 14.9 20.9626ZM18.5914 20.5859C18.1143 20.5859 17.7251 20.2093 17.7251 19.7447C17.7251 19.2676 18.1018 18.8909 18.5914 18.8909H26.4514C26.9285 18.8909 27.3052 19.2676 27.3052 19.7447C27.3052 20.2093 26.9159 20.5859 26.4514 20.5859H18.5914Z" fill="currentColor"/>
</svg>
