<svg width="41" height="40" viewBox="0 0 41 40" fill="none" xmlns="http://www.w3.org/2000/svg">
<path d="M20.4999 32.4763C27.594 32.4763 33.4701 26.6127 33.4701 19.5062C33.4701 12.4121 27.594 6.53601 20.4874 6.53601C13.3933 6.53601 7.52979 12.4121 7.52979 19.5062C7.52979 26.6127 13.4059 32.4763 20.4999 32.4763ZM20.4999 30.4674C15.0884 30.4674 10.5055 26.4118 9.67683 21.2012C9.75216 21.2137 9.81494 21.2137 9.89028 21.2137C11.2337 21.2137 12.1252 20.0712 12.1252 18.3259C12.1252 17.7735 12.2257 17.6102 12.5898 17.4344L13.3933 17.0578C13.8202 16.8443 14.2095 17.0076 14.4731 17.3717L15.9673 19.5564C17.3484 21.5528 18.7547 22.3689 20.0479 22.3689C21.2909 22.3689 22.1322 21.5779 22.1322 20.36C22.1322 19.6443 21.7681 19.029 21.1779 18.6398C20.8013 18.3761 20.9143 18.0748 21.2533 18.0748C24.3169 18.0748 25.9366 16.9699 25.9366 14.7475C25.9366 11.8094 23.4505 11.6462 23.4505 10.8929C23.4505 10.4409 24.0156 10.1897 24.4048 9.28573C28.498 10.8803 31.4611 14.8856 31.4611 19.5062C31.4611 20.6613 31.2728 21.7788 30.9338 22.8334C30.2809 22.2935 29.7536 22.0675 29.1383 22.0675C28.6612 22.0675 28.3975 22.1931 28.1339 22.281C27.8702 22.3563 27.7446 22.2433 27.707 22.0173C27.5814 21.1007 27.0038 20.7366 26.0747 20.7366H25.4218C24.6559 20.7366 24.0407 21.1384 23.5761 21.8541L23.3752 22.168C23.0613 22.6577 22.7851 23.0595 22.5089 23.3231C22.2452 23.5617 22.0443 23.6747 21.5295 23.8379L20.9519 24.0137C20.073 24.2899 19.8094 25.0558 20.0479 25.9096L20.6506 28.0315C20.8766 28.81 21.3412 29.2118 22.0945 29.2118C22.421 29.2118 22.8228 29.0862 23.2371 28.8853L23.4254 28.7975C23.7142 28.6593 23.9277 28.6091 24.1411 28.6091C24.6308 28.6091 24.9572 28.8477 25.3339 29.3248C23.8774 30.053 22.2326 30.4674 20.4999 30.4674Z" fill="currentColor"/>
</svg>
