<svg width="24" height="24" viewBox="0 0 24 24" fill="none" xmlns="http://www.w3.org/2000/svg">
<path d="M5.89791 17.7681C6.22939 17.7681 6.51566 17.6702 6.8396 17.4818L14.5614 12.9467C15.0059 12.683 15.2846 12.3741 15.375 12.005V16.8867C15.375 17.6024 15.7442 17.9715 16.4599 17.9715H18.2302C18.9459 17.9715 19.315 17.6024 19.315 16.8867V6.52061C19.315 5.78986 18.9459 5.43579 18.2302 5.43579H16.4599C15.7442 5.43579 15.375 5.80493 15.375 6.52061V11.3948C15.2846 11.0256 15.0134 10.7318 14.5614 10.4606L6.8396 5.92547C6.50813 5.73713 6.22939 5.6392 5.89038 5.6392C5.22743 5.6392 4.67749 6.1364 4.67749 7.05549V16.3518C4.67749 17.2709 5.23497 17.7681 5.89791 17.7681Z" fill="currentColor"/>
</svg>
