<svg width="28" height="28" viewBox="0 0 28 28" fill="none" xmlns="http://www.w3.org/2000/svg">
<path d="M19.6514 13.6543C19.6426 13.3467 19.5283 13.083 19.291 12.8457L12.4531 6.15723C12.251 5.96387 12.0137 5.8584 11.7236 5.8584C11.1348 5.8584 10.6777 6.31543 10.6777 6.9043C10.6777 7.18555 10.792 7.44922 10.9941 7.65137L17.1465 13.6543L10.9941 19.6572C10.792 19.8594 10.6777 20.1143 10.6777 20.4043C10.6777 20.9932 11.1348 21.4502 11.7236 21.4502C12.0049 21.4502 12.251 21.3447 12.4531 21.1514L19.291 14.4541C19.5371 14.2256 19.6514 13.9619 19.6514 13.6543Z" fill="currentColor"/>
</svg>
