<svg width="24" height="24" viewBox="0 0 24 24" fill="none" xmlns="http://www.w3.org/2000/svg">
<path d="M4.88086 10.9521H9.75879C10.7695 10.9521 11.3584 10.3633 11.3584 9.35254V4.54492C11.3584 3.99121 10.9365 3.57812 10.374 3.57812C9.82031 3.57812 9.41602 3.98242 9.41602 4.54492V5.16895L9.60059 7.89355L7.57031 5.75781L5.05664 3.22656C4.87207 3.0332 4.63477 2.94531 4.37109 2.94531C3.77344 2.94531 3.34277 3.34961 3.34277 3.94727C3.34277 4.21973 3.44824 4.46582 3.6416 4.65039L6.16406 7.17285L8.2998 9.20312L5.55762 9.01855H4.88086C4.31836 9.01855 3.90527 9.41406 3.90527 9.97656C3.90527 10.5391 4.31836 10.9521 4.88086 10.9521ZM13.5732 19.8467C14.127 19.8467 14.5312 19.4424 14.5312 18.8799V18.168L14.3467 15.4521L16.377 17.5879L18.9434 20.1631C19.1191 20.3564 19.3652 20.4443 19.6201 20.4443C20.2178 20.4443 20.6484 20.04 20.6484 19.4424C20.6484 19.1699 20.543 18.9326 20.3584 18.7393L17.7832 16.1729L15.6475 14.1426L18.3896 14.3271H19.1455C19.708 14.3271 20.1211 13.9229 20.1211 13.3691C20.1211 12.7979 19.708 12.3936 19.1455 12.3936H14.1885C13.1777 12.3936 12.5889 12.9824 12.5889 13.9932V18.8799C12.5889 19.4336 13.0107 19.8467 13.5732 19.8467Z" fill="white" fill-opacity="0.8"/>
</svg>
