<svg width="24" height="24" viewBox="0 0 24 24" fill="none" xmlns="http://www.w3.org/2000/svg">
<path d="M4.50293 10.5557C5.05664 10.5557 5.46973 10.1514 5.46973 9.58887V8.96484L5.28516 6.24023L7.31543 8.37598L9.8291 10.9072C10.0137 11.1006 10.251 11.1885 10.5059 11.1885C11.1035 11.1885 11.5342 10.7842 11.5342 10.1865C11.5342 9.91406 11.4287 9.67676 11.2441 9.4834L8.72168 6.96094L6.57715 4.93945L9.31934 5.12402H10.0049C10.5586 5.12402 10.9805 4.71973 10.9805 4.15723C10.9805 3.59473 10.5674 3.18164 10.0049 3.18164H5.12695C4.11621 3.18164 3.52734 3.77051 3.52734 4.78125V9.58887C3.52734 10.1426 3.94043 10.5557 4.50293 10.5557ZM13.9863 20.1357H18.8643C19.875 20.1357 20.4639 19.5469 20.4639 18.5361V13.7285C20.4639 13.1748 20.042 12.7617 19.4883 12.7617C18.9346 12.7617 18.5215 13.166 18.5215 13.7285V14.3525L18.7061 17.0771L16.6758 14.9414L14.1621 12.4102C13.9775 12.2168 13.7402 12.1289 13.4766 12.1289C12.8789 12.1289 12.4482 12.5332 12.4482 13.1309C12.4482 13.4033 12.5537 13.6494 12.7471 13.834L15.2695 16.3564L17.4141 18.3779L14.6719 18.1934H13.9863C13.4238 18.1934 13.0107 18.5977 13.0107 19.1602C13.0107 19.7227 13.4238 20.1357 13.9863 20.1357Z" fill="white" fill-opacity="0.8"/>
</svg>
