<svg width="24" height="24" viewBox="0 0 24 24" fill="none" xmlns="http://www.w3.org/2000/svg">
<path fill-rule="evenodd" clip-rule="evenodd" d="M11.6963 7.8793C11.8739 8.02633 12.1261 8.02633 12.3037 7.8793L13.6433 6.76983C15.2993 5.39827 17.7553 5.95672 18.7038 7.9205C19.345 9.24819 19.0937 10.8517 18.0798 11.9014L12.3437 17.8397C12.1539 18.0362 11.8461 18.0362 11.6563 17.8397L5.92022 11.9014C4.90633 10.8517 4.65498 9.24819 5.29622 7.9205C6.24467 5.95672 8.70067 5.39827 10.3567 6.76983L11.6963 7.8793ZM12 5.55297L12.4286 5.19799C15.0513 3.02586 18.9408 3.91027 20.4429 7.02028C21.4584 9.12294 21.0603 11.6624 19.4547 13.3247L13.7186 19.263C12.7694 20.2457 11.2305 20.2457 10.2814 19.263L4.54533 13.3247C2.93965 11.6624 2.54158 9.12294 3.55711 7.02028C5.05915 3.91027 8.9487 3.02586 11.5714 5.19799L12 5.55297Z" fill="currentColor"/>
</svg>
