<svg width="28" height="28" viewBox="0 0 28 28" fill="none" xmlns="http://www.w3.org/2000/svg">
<g clip-path="url(#clip0_2_10)">
<path d="M5 10.9594C5 14.777 8.23566 18.5319 13.3474 21.7581C13.5378 21.8746 13.8097 22 14 22C14.1904 22 14.4622 21.8746 14.6616 21.7581C19.7644 18.5319 23 14.777 23 10.9594C23 7.78704 20.7976 5.54666 17.8611 5.54666C16.1843 5.54666 14.8248 6.33528 14 7.54508C13.1934 6.34424 11.8157 5.54666 10.139 5.54666C7.20242 5.54666 5 7.78704 5 10.9594ZM6.45922 10.9594C6.45922 8.57566 8.01813 6.98947 10.1209 6.98947C11.8248 6.98947 12.8036 8.03797 13.3837 8.93412C13.6284 9.29258 13.7825 9.39116 14 9.39116C14.2175 9.39116 14.3535 9.28362 14.6164 8.93412C15.2417 8.05589 16.1843 6.98947 17.8792 6.98947C19.9819 6.98947 21.5408 8.57566 21.5408 10.9594C21.5408 14.2931 17.9789 17.8867 14.1904 20.378C14.0997 20.4407 14.0363 20.4855 14 20.4855C13.9638 20.4855 13.9003 20.4407 13.8187 20.378C10.0212 17.8867 6.45922 14.2931 6.45922 10.9594Z" fill="currentColor" />
</g>
<defs>
<clipPath id="clip0_2_10">
<rect width="18" height="17" fill="white" transform="translate(5 5)"/>
</clipPath>
</defs>
</svg>
