<svg width="41" height="40" viewBox="0 0 41 40" fill="none" xmlns="http://www.w3.org/2000/svg">
<path fill-rule="evenodd" clip-rule="evenodd" d="M28.4478 7.25166H12.5522C12.6275 6.14675 13.293 5.54407 14.4858 5.54407H26.5017C27.707 5.54407 28.3599 6.14675 28.4478 7.25166ZM31.0092 10.8803H9.99079C10.1666 9.68748 10.7693 9.00947 12.1002 9.00947H28.8998C30.2307 9.00947 30.8334 9.68748 31.0092 10.8803ZM29.5151 33.4556H11.4724C8.84821 33.4556 7.49219 32.0996 7.49219 29.5131V16.8694C7.49219 14.2704 8.84821 12.9269 11.4724 12.9269H29.5151C32.1267 12.9269 33.4953 14.2829 33.4953 16.8694V29.5131C33.4953 32.0996 32.1267 33.4556 29.5151 33.4556ZM20.8529 21.5675L23.7 20.8949C24.3235 20.7581 24.5 20.6099 24.5 19.9145V17.589C24.5 17.0988 24.3 16.8936 23.6412 17.0532L20.0647 17.9196C19.4529 18.0678 19.3118 18.2046 19.3118 18.9114V24.0868C19.3118 24.6112 19.2647 24.691 18.6765 24.8392L17.5588 25.1241C16.4059 25.4205 15.5 26.0931 15.5 27.2445C15.5 28.2704 16.3 29 17.5353 29C19.3 29 20.5118 27.7802 20.5118 26.0475V22.1488C20.5118 21.7271 20.5941 21.6359 20.8529 21.5675Z" fill="currentColor"/>
</svg>
