<svg width="24" height="24" viewBox="0 0 24 24" fill="none" xmlns="http://www.w3.org/2000/svg">
<path d="M13 16.5C13 17.8807 11.8807 19 10.5 19C9.11929 19 8 17.8807 8 16.5C8 15.1193 9.11929 14 10.5 14C11.8807 14 13 15.1193 13 16.5Z" stroke="currentColor" stroke-width="2"/>
<path d="M13.2572 5.49711L15.9021 4.43917C16.4828 4.20687 17.1351 4.54037 17.2868 5.14719C17.4097 5.63869 17.1577 6.14671 16.692 6.34628L14.6061 7.24025C14.2384 7.39783 14 7.75937 14 8.1594V16.5L12 15V7.35407C12 6.53626 12.4979 5.80084 13.2572 5.49711Z" fill="currentColor"/>
</svg>
