<svg width="41" height="40" viewBox="0 0 41 40" fill="none" xmlns="http://www.w3.org/2000/svg">
<path d="M20.4874 6.53601C13.3934 6.53601 7.52982 12.4121 7.52982 19.5062C7.52982 19.7573 7.54238 19.9958 7.55493 20.2344C8.11994 20.0586 8.72262 19.9582 9.33786 19.9582C12.301 19.9582 14.7996 22.1052 15.3395 24.9177C16.7709 24.1518 18.5538 23.7375 20.5 23.7375C23.8524 23.7375 26.7528 24.9554 28.1967 27.1401C26.2882 29.1867 23.3125 30.3544 20.5 30.3544C18.5287 30.3544 16.5072 29.7768 14.8247 28.7347C14.5108 29.3876 14.0965 29.9651 13.5817 30.4423C15.5906 31.7355 17.9637 32.4763 20.5 32.4763C27.594 32.4763 33.4701 26.6127 33.4701 19.5062C33.4701 12.4121 27.594 6.53601 20.4874 6.53601ZM20.5 21.5653C18.039 21.5528 16.1305 19.4936 16.1305 16.7815C16.118 14.2202 18.0641 12.0857 20.5 12.0857C22.9358 12.0857 24.8694 14.2202 24.8694 16.7815C24.8694 19.4936 22.9609 21.5904 20.5 21.5653ZM9.33786 30.4172C11.7109 30.4172 13.6822 28.4584 13.6822 26.0728C13.6822 23.6998 11.7109 21.7411 9.33786 21.7411C6.96481 21.7411 5.0061 23.6998 5.0061 26.0728C5.0061 28.4584 6.96481 30.4172 9.33786 30.4172Z" fill="currentColor"/>
</svg>
