<svg width="24" height="24" viewBox="0 0 24 24" fill="none" xmlns="http://www.w3.org/2000/svg">
<path d="M5.7623 17.9715H7.53267C8.24835 17.9715 8.61749 17.6024 8.61749 16.8867V12.005C8.58736 11.9071 8.57983 11.8091 8.57983 11.6961C8.57983 11.5906 8.58736 11.4852 8.61749 11.3948V6.52061C8.61749 5.78986 8.24835 5.44332 7.53267 5.43579H5.7623C5.04662 5.43579 4.67748 5.80493 4.67748 6.52061V16.8867C4.66995 17.6024 5.03909 17.9715 5.7623 17.9715ZM18.0946 17.7681C18.7576 17.7681 19.315 17.2709 19.315 16.3518V7.05549C19.315 6.1364 18.7651 5.6392 18.1021 5.6392C17.7707 5.6392 17.4844 5.73713 17.1529 5.92547L9.43111 10.4606C8.98663 10.7318 8.70789 11.0256 8.61749 11.3948V12.005C8.71543 12.3741 8.98663 12.683 9.43111 12.9467L17.1529 17.4818C17.4844 17.6702 17.7631 17.7681 18.0946 17.7681Z" fill="currentColor"/>
</svg>
