<svg width="28" height="28" viewBox="0 0 28 28" fill="none" xmlns="http://www.w3.org/2000/svg">
<path d="M22.7979 11.3691C23.4131 11.3691 23.7734 11.0352 23.7734 10.3672V6.24512C23.7734 5.54199 23.3076 5.07617 22.6133 5.07617C22.0508 5.07617 21.708 5.25195 21.2598 5.58594L20.126 6.44727C19.8623 6.64941 19.7656 6.84277 19.7656 7.08008C19.7656 7.43164 20.0205 7.7041 20.416 7.7041C20.5918 7.7041 20.7412 7.64258 20.8906 7.52832L21.7344 6.84277H21.8047V10.3672C21.8047 11.0352 22.1738 11.3691 22.7979 11.3691ZM4.12109 12.8984C4.12109 13.5225 4.5957 13.9971 5.21973 13.9971C5.85254 13.9971 6.31836 13.5225 6.31836 12.8984V12.3271C6.31836 10.8945 7.30273 9.97168 8.79688 9.97168H13.2441V11.8086C13.2441 12.3359 13.5781 12.6699 14.1055 12.6699C14.3428 12.6699 14.5713 12.582 14.7471 12.4414L18.21 9.55859C18.6318 9.20703 18.6318 8.63574 18.21 8.28418L14.7471 5.39258C14.5713 5.24316 14.3428 5.15527 14.1055 5.15527C13.5781 5.15527 13.2441 5.48926 13.2441 6.0166V7.80957H8.97266C5.99316 7.80957 4.12109 9.4707 4.12109 12.1162V12.8984ZM12.585 15.3066C12.585 14.7793 12.251 14.4365 11.7236 14.4365C11.4863 14.4365 11.2578 14.5332 11.082 14.6738L7.62793 17.5566C7.19727 17.8994 7.19727 18.4707 7.62793 18.8311L11.082 21.7227C11.2578 21.8721 11.4863 21.96 11.7236 21.96C12.251 21.96 12.585 21.626 12.585 21.0986V19.2969H19.0186C21.998 19.2969 23.8613 17.627 23.8613 14.9902V14.208C23.8613 13.5752 23.3867 13.1006 22.7627 13.1006C22.1387 13.1006 21.6641 13.5752 21.6641 14.208V14.7793C21.6641 16.2031 20.6885 17.1348 19.1855 17.1348H12.585V15.3066Z" fill="currentColor"/>
</svg>
