<svg width="24" height="24" viewBox="0 0 24 24" fill="none" xmlns="http://www.w3.org/2000/svg">
<path d="M4.5 7H5.73524C7.14029 7 8.44232 7.7372 9.16521 8.94202L11 12L13.3057 15.2938C14.0542 16.3632 15.2774 17 16.5826 17H17" stroke="currentColor" stroke-width="2" stroke-linecap="round"/>
<path d="M4.5 17H5.73524C7.14029 17 8.44232 16.2628 9.16521 15.058L11 12L13.3057 8.70615C14.0542 7.63685 15.2774 7 16.5826 7H17" stroke="currentColor" stroke-width="2" stroke-linecap="round"/>
<path d="M16.5 9.34761V4.65239C16.5 4.57149 16.5911 4.52408 16.6573 4.57047L20.0111 6.91808C20.0679 6.95789 20.0679 7.04211 20.0111 7.08192L16.6573 9.42953C16.5911 9.47592 16.5 9.42851 16.5 9.34761Z" fill="currentColor" stroke="currentColor" stroke-linecap="round"/>
<path d="M16.5 19.3476V14.6524C16.5 14.5715 16.5911 14.5241 16.6573 14.5705L20.0111 16.9181C20.0679 16.9579 20.0679 17.0421 20.0111 17.0819L16.6573 19.4295C16.5911 19.4759 16.5 19.4285 16.5 19.3476Z" fill="currentColor" stroke="currentColor" stroke-linecap="round"/>
</svg>
