<svg width="28" height="28" viewBox="0 0 28 28" fill="none" xmlns="http://www.w3.org/2000/svg">
<path d="M3.33887 18.3564C3.33887 18.9805 3.80469 19.4199 4.47266 19.4199H6.54688C8.11133 19.4199 9.06055 18.9541 10.124 17.6885L12.1191 15.3154L14.0791 17.6533C15.1689 18.9541 16.2412 19.4287 17.8145 19.4287H19.3789V21.3535C19.3789 21.8809 19.7129 22.2148 20.249 22.2148C20.4863 22.2148 20.7061 22.127 20.8818 21.9863L24.3447 19.1035C24.7754 18.752 24.7666 18.1807 24.3447 17.8291L20.8818 14.9375C20.7061 14.7881 20.4863 14.7002 20.249 14.7002C19.7129 14.7002 19.3789 15.0342 19.3789 15.5615V17.2842H17.8584C16.8652 17.2842 16.25 16.959 15.5293 16.1064L13.4902 13.6895L15.5381 11.2549C16.2676 10.3848 16.8301 10.0859 17.8057 10.0859H19.3789V11.835C19.3789 12.3623 19.7129 12.6963 20.249 12.6963C20.4863 12.6963 20.7061 12.6084 20.8818 12.4678L24.3447 9.58496C24.7754 9.2334 24.7666 8.66211 24.3447 8.31055L20.8818 5.41895C20.7061 5.26953 20.4863 5.18164 20.249 5.18164C19.7129 5.18164 19.3789 5.51562 19.3789 6.04297V7.94141H17.8232C16.1973 7.94141 15.1689 8.39844 14.0176 9.78711L12.1191 12.0459L10.124 9.68164C9.06055 8.41602 8.0498 7.94141 6.48535 7.94141H4.47266C3.80469 7.94141 3.33887 8.38965 3.33887 9.01367C3.33887 9.6377 3.81348 10.0859 4.47266 10.0859H6.40625C7.35547 10.0859 7.98828 10.4023 8.70898 11.2637L10.7393 13.6807L8.70898 16.1064C7.97949 16.9678 7.4082 17.2842 6.46777 17.2842H4.47266C3.81348 17.2842 3.33887 17.7324 3.33887 18.3564Z" fill="currentColor"/>
</svg>
