<svg width="28" height="28" viewBox="0 0 28 28" fill="none" xmlns="http://www.w3.org/2000/svg">
<path d="M13.1447 23.6543H14.8647C15.4286 23.6543 15.8515 23.316 15.9737 22.7614L16.4436 20.7784C16.7632 20.6656 17.0639 20.5434 17.3459 20.4118L19.0846 21.4832C19.5451 21.7746 20.0996 21.7276 20.485 21.3423L21.6974 20.1299C22.0827 19.7445 22.1391 19.1712 21.8289 18.7013L20.7669 16.9814C20.8985 16.6994 21.0207 16.3987 21.1147 16.1073L23.1165 15.6374C23.6711 15.5152 24 15.0923 24 14.5284V12.8366C24 12.2821 23.6711 11.8498 23.1165 11.7276L21.1335 11.2483C21.0301 10.9193 20.8985 10.628 20.7857 10.3742L21.8477 8.6167C22.1485 8.13738 22.1109 7.60167 21.7068 7.20693L20.485 5.99452C20.0902 5.63738 19.5921 5.57159 19.1128 5.83475L17.3459 6.92497C17.0733 6.79339 16.7726 6.67121 16.453 6.55843L15.9737 4.54715C15.8515 3.99264 15.4286 3.6543 14.8647 3.6543H13.1447C12.5714 3.6543 12.1485 3.99264 12.0263 4.54715L11.5564 6.54903C11.2368 6.65242 10.9267 6.7746 10.6447 6.91557L8.88722 5.83475C8.40789 5.57159 7.91917 5.62798 7.51504 5.99452L6.29323 7.20693C5.8891 7.60167 5.8515 8.13738 6.15226 8.6167L7.21429 10.3742C7.1015 10.628 6.97932 10.9193 6.86654 11.2483L4.88346 11.7276C4.32895 11.8498 4 12.2821 4 12.8366V14.5284C4 15.0923 4.32895 15.5152 4.88346 15.6374L6.88534 16.1073C6.97932 16.3987 7.1015 16.6994 7.23308 16.9814L6.17105 18.7013C5.8609 19.1712 5.91729 19.7445 6.31203 20.1299L7.51504 21.3423C7.90038 21.7276 8.45489 21.7746 8.92481 21.4832L10.6541 20.4118C10.9361 20.5434 11.2368 20.6656 11.5564 20.7784L12.0263 22.7614C12.1485 23.316 12.5714 23.6543 13.1447 23.6543ZM14 16.9438C12.1955 16.9438 10.7199 15.4588 10.7199 13.6449C10.7199 11.8498 12.1955 10.3742 14 10.3742C15.8139 10.3742 17.2895 11.8498 17.2895 13.6449C17.2895 15.4588 15.8139 16.9438 14 16.9438Z" fill="currentColor"/>
</svg>
