<svg xmlns="http://www.w3.org/2000/svg" x="0px" y="0px"
width="24" height="24"
viewBox="0 0 24 24"
style=" fill:#000000;"><path d="M19.971,14.583C19.985,14.39,20,14.197,20,14c0-0.513-0.053-1.014-0.145-1.5C19.947,12.014,20,11.513,20,11 c0-4.418-3.582-8-8-8s-8,3.582-8,8c0,0.513,0.053,1.014,0.145,1.5C4.053,12.986,4,13.487,4,14c0,0.197,0.015,0.39,0.029,0.583 C3.433,14.781,3,15.337,3,16c0,0.828,0.672,1.5,1.5,1.5c0.103,0,0.203-0.01,0.3-0.03C6.093,20.148,8.827,22,12,22 s5.907-1.852,7.2-4.53c0.097,0.02,0.197,0.03,0.3,0.03c0.828,0,1.5-0.672,1.5-1.5C21,15.337,20.567,14.781,19.971,14.583z" opacity=".35"></path><path d="M21,18h-2v-6h2c1.105,0,2,0.895,2,2v2C23,17.105,22.105,18,21,18z"></path><path d="M3,12h2v6H3c-1.105,0-2-0.895-2-2v-2C1,12.895,1.895,12,3,12z"></path><path d="M5,13c0-0.843,0-1.638,0-2c0-3.866,3.134-7,7-7s7,3.134,7,7c0,0.362,0,1.157,0,2h2c0-0.859,0-1.617,0-2c0-4.971-4.029-9-9-9	s-9,4.029-9,9c0,0.383,0,1.141,0,2H5z"></path></svg>
