<svg width="24" height="24" viewBox="0 0 24 24" fill="none" xmlns="http://www.w3.org/2000/svg">
<path d="M13.0656 5.86692L12 6.71938L10.9344 5.86692C8.73386 4.10647 5.47034 4.82325 4.21005 7.34384C3.35797 9.04799 3.69197 11.1062 5.03922 12.4534L10.9393 18.3536C11.5251 18.9393 12.4749 18.9393 13.0607 18.3536L18.9608 12.4534C20.308 11.1062 20.642 9.04799 19.79 7.34384C18.5297 4.82325 15.2661 4.10647 13.0656 5.86692Z" stroke="currentColor" stroke-width="2" stroke-linecap="round"/>
<path d="M13.6903 6.64779L12.3124 7.75012C12.1297 7.89621 11.8703 7.89621 11.6877 7.75012L10.3097 6.64779C8.60632 5.28504 6.08006 5.8399 5.10448 7.79105C4.4449 9.11021 4.70345 10.7034 5.74633 11.7463L11.6465 17.6464C11.8417 17.8417 12.1583 17.8417 12.3536 17.6464L18.2537 11.7463C19.2966 10.7034 19.5551 9.11021 18.8955 7.79105C17.92 5.8399 15.3937 5.28504 13.6903 6.64779Z" fill="currentColor"/>
<path fill-rule="evenodd" clip-rule="evenodd" d="M12 5.43875L12.4409 5.08605C15.1386 2.92789 19.1394 3.80661 20.6844 6.89663C21.729 8.98577 21.3195 11.5089 19.6679 13.1605L13.7678 19.0607C12.7915 20.037 11.2085 20.037 10.2322 19.0607L4.33212 13.1605C2.6805 11.5089 2.27106 8.98577 3.31562 6.89663C4.86063 3.80661 8.86143 2.92789 11.5591 5.08605L12 5.43875ZM12.3124 7.75013L13.6903 6.64779C15.3937 5.28505 17.92 5.8399 18.8955 7.79106C19.5551 9.11022 19.2966 10.7034 18.2537 11.7463L12.3536 17.6465C12.1583 17.8417 11.8417 17.8417 11.6465 17.6465L5.74633 11.7463C4.70344 10.7034 4.4449 9.11022 5.10448 7.79106C6.08006 5.8399 8.60631 5.28505 10.3097 6.64779L11.6877 7.75013C11.8703 7.89621 12.1297 7.89621 12.3124 7.75013Z" fill="currentColor"/>
</svg>
