<svg fill="#000000" xmlns="http://www.w3.org/2000/svg"  viewBox="0 0 30 30" width="30px" height="30px"><path d="M 9.5449219 3 C 5.3895807 3 2 6.3895806 2 10.544922 C 2 14.283156 4.9005496 18.084723 7.6601562 21.119141 C 10.419763 24.153558 13.171875 26.369141 13.171875 26.369141 A 1.0001 1.0001 0 0 0 13.197266 26.388672 C 13.642797 26.725148 14.201794 26.943857 14.808594 26.984375 A 1.0001 1.0001 0 0 0 15 27 A 1.0001 1.0001 0 0 0 15.189453 26.984375 A 1.0001 1.0001 0 0 0 15.199219 26.982422 C 15.802918 26.940449 16.359155 26.723674 16.802734 26.388672 A 1.0001 1.0001 0 0 0 16.828125 26.369141 C 16.828125 26.369141 19.580237 24.153558 22.339844 21.119141 C 25.099451 18.084722 28 14.283156 28 10.544922 C 28 6.3895806 24.610419 3 20.455078 3 C 17.841043 3 15.989939 4.4385487 15 5.4570312 C 14.010061 4.4385487 12.158957 3 9.5449219 3 z M 9.5449219 5 C 12.276127 5 13.937826 7.2424468 14.103516 7.4746094 A 1.0001 1.0001 0 0 0 14.994141 8.0136719 A 1.0001 1.0001 0 0 0 15.017578 8.0136719 A 1.0001 1.0001 0 0 0 15.041016 8.0117188 A 1.0001 1.0001 0 0 0 15.117188 8.0058594 A 1.0001 1.0001 0 0 0 15.892578 7.4785156 C 16.049938 7.2575052 17.716133 5 20.455078 5 C 23.529737 5 26 7.4702629 26 10.544922 C 26 13.147688 23.499768 16.870104 20.859375 19.773438 C 18.227966 22.666891 15.607768 24.780451 15.589844 24.794922 C 15.414236 24.925626 15.219097 25 15 25 C 14.780903 25 14.585764 24.92563 14.410156 24.794922 C 14.392236 24.780452 11.772034 22.666891 9.140625 19.773438 C 6.5002316 16.870105 4 13.147688 4 10.544922 C 4 7.4702629 6.470263 5 9.5449219 5 z"/></svg>
