<svg width="18" height="20" viewBox="0 0 18 20" fill="none" xmlns="http://www.w3.org/2000/svg">
<circle cx="9" cy="10" r="3" stroke="currentColor" stroke-width="2"/>
<path d="M9.89443 18.5528L9.44721 17.6584L9.89443 18.5528ZM2.55279 5.34164L8.55279 2.34164L7.65836 0.552786L1.65836 3.55279L2.55279 5.34164ZM9.44721 2.34164L15.4472 5.34164L16.3416 3.55279L10.3416 0.552786L9.44721 2.34164ZM16 6.23607V13.7639H18V6.23607H16ZM15.4472 14.6584L9.44721 17.6584L10.3416 19.4472L16.3416 16.4472L15.4472 14.6584ZM2 13.7669C2 13.7634 2 13.7599 2 13.7565C2 13.753 2 13.7496 2 13.7461C2 13.7426 2 13.7391 2 13.7356C2 13.7322 2 13.7287 2 13.7252C2 13.7217 2 13.7182 2 13.7147C2 13.7111 2 13.7076 2 13.7041C2 13.7006 2 13.6971 2 13.6935C2 13.69 2 13.6865 2 13.6829C2 13.6794 2 13.6758 2 13.6723C2 13.6687 2 13.6652 2 13.6616C2 13.658 2 13.6544 2 13.6509C2 13.6473 2 13.6437 2 13.6401C2 13.6365 2 13.6329 2 13.6293C2 13.6257 2 13.6221 2 13.6185C2 13.6149 2 13.6113 2 13.6077C2 13.604 2 13.6004 2 13.5968C2 13.5931 2 13.5895 2 13.5859C2 13.5822 2 13.5786 2 13.5749C2 13.5712 2 13.5676 2 13.5639C2 13.5602 2 13.5566 2 13.5529C2 13.5492 2 13.5455 2 13.5418C2 13.5382 2 13.5345 2 13.5308C2 13.5271 2 13.5233 2 13.5196C2 13.5159 2 13.5122 2 13.5085C2 13.5048 2 13.501 2 13.4973C2 13.4936 2 13.4898 2 13.4861C2 13.4823 2 13.4786 2 13.4748C2 13.4711 2 13.4673 2 13.4635C2 13.4598 2 13.456 2 13.4522C2 13.4485 2 13.4447 2 13.4409C2 13.4371 2 13.4333 2 13.4295C2 13.4257 2 13.4219 2 13.4181C2 13.4143 2 13.4105 2 13.4067C2 13.4028 2 13.399 2 13.3952C2 13.3914 2 13.3875 2 13.3837C2 13.3798 2 13.376 2 13.3721C2 13.3683 2 13.3644 2 13.3606C2 13.3567 2 13.3528 2 13.349C2 13.3451 2 13.3412 2 13.3373C2 13.3335 2 13.3296 2 13.3257C2 13.3218 2 13.3179 2 13.314C2 13.3101 2 13.3062 2 13.3023C2 13.2983 2 13.2944 2 13.2905C2 13.2866 2 13.2826 2 13.2787C2 13.2748 2 13.2708 2 13.2669C2 13.263 2 13.259 2 13.255C2 13.2511 2 13.2471 2 13.2432C2 13.2392 2 13.2352 2 13.2313C2 13.2273 2 13.2233 2 13.2193C2 13.2153 2 13.2113 2 13.2074C2 13.2034 2 13.1994 2 13.1954C2 13.1914 2 13.1873 2 13.1833C2 13.1793 2 13.1753 2 13.1713C2 13.1672 2 13.1632 2 13.1592C2 13.1551 2 13.1511 2 13.1471C2 13.143 2 13.139 2 13.1349C2 13.1309 2 13.1268 2 13.1227C2 13.1187 2 13.1146 2 13.1105C2 13.1065 2 13.1024 2 13.0983C2 13.0942 2 13.0901 2 13.086C2 13.082 2 13.0779 2 13.0738C2 13.0696 2 13.0655 2 13.0614C2 13.0573 2 13.0532 2 13.0491C2 13.045 2 13.0408 2 13.0367C2 13.0326 2 13.0284 2 13.0243C2 13.0202 2 13.016 2 13.0119C2 13.0077 2 13.0036 2 12.9994C2 12.9952 2 12.9911 2 12.9869C2 12.9827 2 12.9786 2 12.9744C2 12.9702 2 12.966 2 12.9618C2 12.9577 2 12.9535 2 12.9493C2 12.9451 2 12.9409 2 12.9367C2 12.9325 2 12.9283 2 12.924C2 12.9198 2 12.9156 2 12.9114C2 12.9072 2 12.9029 2 12.8987C2 12.8945 2 12.8902 2 12.886C2 12.8817 2 12.8775 2 12.8732C2 12.869 2 12.8647 2 12.8605C2 12.8562 2 12.852 2 12.8477C2 12.8434 2 12.8391 2 12.8349C2 12.8306 2 12.8263 2 12.822C2 12.8177 2 12.8134 2 12.8091C2 12.8048 2 12.8005 2 12.7962C2 12.7919 2 12.7876 2 12.7833C2 12.779 2 12.7747 2 12.7704C2 12.766 2 12.7617 2 12.7574C2 12.7531 2 12.7487 2 12.7444C2 12.74 2 12.7357 2 12.7313C2 12.727 2 12.7226 2 12.7183C2 12.7139 2 12.7096 2 12.7052C2 12.7008 2 12.6965 2 12.6921C2 12.6877 2 12.6833 2 12.679C2 12.6746 2 12.6702 2 12.6658C2 12.6614 2 12.657 2 12.6526C2 12.6482 2 12.6438 2 12.6394C2 12.635 2 12.6306 2 12.6262C2 12.6218 2 12.6173 2 12.6129C2 12.6085 2 12.6041 2 12.5996C2 12.5952 2 12.5908 2 12.5863C2 12.5819 2 12.5774 2 12.573C2 12.5685 2 12.5641 2 12.5596C2 12.5552 2 12.5507 2 12.5462C2 12.5418 2 12.5373 2 12.5328C2 12.5284 2 12.5239 2 12.5194C2 12.5149 2 12.5104 2 12.5059C2 12.5015 2 12.497 2 12.4925C2 12.488 2 12.4835 2 12.479C2 12.4745 2 12.4699 2 12.4654C2 12.4609 2 12.4564 2 12.4519C2 12.4474 2 12.4428 2 12.4383C2 12.4338 2 12.4292 2 12.4247C2 12.4202 2 12.4156 2 12.4111C2 12.4065 2 12.402 2 12.3974C2 12.3929 2 12.3883 2 12.3838C2 12.3792 2 12.3746 2 12.3701C2 12.3655 2 12.3609 2 12.3564C2 12.3518 2 12.3472 2 12.3426C2 12.338 2 12.3335 2 12.3289C2 12.3243 2 12.3197 2 12.3151C2 12.3105 2 12.3059 2 12.3013C2 12.2967 2 12.2921 2 12.2874C2 12.2828 2 12.2782 2 12.2736C2 12.269 2 12.2643 2 12.2597C2 12.2551 2 12.2505 2 12.2458C2 12.2412 2 12.2366 2 12.2319C2 12.2273 2 12.2226 2 12.218C2 12.2133 2 12.2087 2 12.204C2 12.1994 2 12.1947 2 12.19C2 12.1854 2 12.1807 2 12.176C2 12.1713 2 12.1667 2 12.162C2 12.1573 2 12.1526 2 12.1479C2 12.1433 2 12.1386 2 12.1339C2 12.1292 2 12.1245 2 12.1198C2 12.1151 2 12.1104 2 12.1057C2 12.101 2 12.0963 2 12.0915C2 12.0868 2 12.0821 2 12.0774C2 12.0727 2 12.0679 2 12.0632C2 12.0585 2 12.0538 2 12.049C2 12.0443 2 12.0396 2 12.0348C2 12.0301 2 12.0253 2 12.0206C2 12.0158 2 12.0111 2 12.0063C2 12.0016 2 11.9968 2 11.992C2 11.9873 2 11.9825 2 11.9778C2 11.973 2 11.9682 2 11.9634C2 11.9587 2 11.9539 2 11.9491C2 11.9443 2 11.9395 2 11.9347C2 11.93 2 11.9252 2 11.9204C2 11.9156 2 11.9108 2 11.906C2 11.9012 2 11.8964 2 11.8916C2 11.8868 2 11.8819 2 11.8771C2 11.8723 2 11.8675 2 11.8627C2 11.8579 2 11.853 2 11.8482C2 11.8434 2 11.8385 2 11.8337C2 11.8289 2 11.824 2 11.8192C2 11.8144 2 11.8095 2 11.8047C2 11.7998 2 11.795 2 11.7901C2 11.7853 2 11.7804 2 11.7756C2 11.7707 2 11.7658 2 11.761C2 11.7561 2 11.7512 2 11.7464C2 11.7415 2 11.7366 2 11.7318C2 11.7269 2 11.722 2 11.7171C2 11.7122 2 11.7073 2 11.7025C2 11.6976 2 11.6927 2 11.6878C2 11.6829 2 11.678 2 11.6731C2 11.6682 2 11.6633 2 11.6584C2 11.6535 2 11.6486 2 11.6437C2 11.6387 2 11.6338 2 11.6289C2 11.624 2 11.6191 2 11.6141C2 11.6092 2 11.6043 2 11.5994C2 11.5944 2 11.5895 2 11.5846C2 11.5796 2 11.5747 2 11.5698C2 11.5648 2 11.5599 2 11.5549C2 11.55 2 11.545 2 11.5401C2 11.5351 2 11.5302 2 11.5252C2 11.5202 2 11.5153 2 11.5103C2 11.5054 2 11.5004 2 11.4954C2 11.4905 2 11.4855 2 11.4805C2 11.4755 2 11.4706 2 11.4656C2 11.4606 2 11.4556 2 11.4506C2 11.4456 2 11.4407 2 11.4357C2 11.4307 2 11.4257 2 11.4207C2 11.4157 2 11.4107 2 11.4057C2 11.4007 2 11.3957 2 11.3907C2 11.3857 2 11.3807 2 11.3757C2 11.3706 2 11.3656 2 11.3606C2 11.3556 2 11.3506 2 11.3456C2 11.3405 2 11.3355 2 11.3305C2 11.3255 2 11.3204 2 11.3154C2 11.3104 2 11.3053 2 11.3003C2 11.2952 2 11.2902 2 11.2852C2 11.2801 2 11.2751 2 11.27C2 11.265 2 11.2599 2 11.2549C2 11.2498 2 11.2448 2 11.2397C2 11.2347 2 11.2296 2 11.2245C2 11.2195 2 11.2144 2 11.2093C2 11.2043 2 11.1992 2 11.1941C2 11.1891 2 11.184 2 11.1789C2 11.1738 2 11.1688 2 11.1637C2 11.1586 2 11.1535 2 11.1484C2 11.1433 2 11.1383 2 11.1332C2 11.1281 2 11.123 2 11.1179C2 11.1128 2 11.1077 2 11.1026C2 11.0975 2 11.0924 2 11.0873C2 11.0822 2 11.0771 2 11.072C2 11.0669 2 11.0618 2 11.0566C2 11.0515 2 11.0464 2 11.0413C2 11.0362 2 11.0311 2 11.0259C2 11.0208 2 11.0157 2 11.0106C2 11.0054 2 11.0003 2 10.9952C2 10.99 2 10.9849 2 10.9798C2 10.9746 2 10.9695 2 10.9644C2 10.9592 2 10.9541 2 10.9489C2 10.9438 2 10.9387 2 10.9335C2 10.9284 2 10.9232 2 10.9181C2 10.9129 2 10.9078 2 10.9026C2 10.8974 2 10.8923 2 10.8871C2 10.882 2 10.8768 2 10.8716C2 10.8665 2 10.8613 2 10.8561C2 10.851 2 10.8458 2 10.8406C2 10.8355 2 10.8303 2 10.8251C2 10.8199 2 10.8148 2 10.8096C2 10.8044 2 10.7992 2 10.794C2 10.7888 2 10.7837 2 10.7785C2 10.7733 2 10.7681 2 10.7629C2 10.7577 2 10.7525 2 10.7473C2 10.7421 2 10.7369 2 10.7317C2 10.7265 2 10.7213 2 10.7161C2 10.7109 2 10.7057 2 10.7005C2 10.6953 2 10.6901 2 10.6849C2 10.6797 2 10.6745 2 10.6693C2 10.6641 2 10.6588 2 10.6536C2 10.6484 2 10.6432 2 10.638C2 10.6327 2 10.6275 2 10.6223C2 10.6171 2 10.6118 2 10.6066C2 10.6014 2 10.5962 2 10.5909C2 10.5857 2 10.5805 2 10.5752C2 10.57 2 10.5648 2 10.5595C2 10.5543 2 10.5491 2 10.5438C2 10.5386 2 10.5333 2 10.5281C2 10.5228 2 10.5176 2 10.5124C2 10.5071 2 10.5019 2 10.4966C2 10.4914 2 10.4861 2 10.4809C2 10.4756 2 10.4703 2 10.4651C2 10.4598 2 10.4546 2 10.4493C2 10.4441 2 10.4388 2 10.4335C2 10.4283 2 10.423 2 10.4177C2 10.4125 2 10.4072 2 10.4019C2 10.3967 2 10.3914 2 10.3861C2 10.3809 2 10.3756 2 10.3703C2 10.365 2 10.3598 2 10.3545C2 10.3492 2 10.3439 2 10.3386C2 10.3334 2 10.3281 2 10.3228C2 10.3175 2 10.3122 2 10.3069C2 10.3017 2 10.2964 2 10.2911C2 10.2858 2 10.2805 2 10.2752C2 10.2699 2 10.2646 2 10.2593C2 10.254 2 10.2488 2 10.2435C2 10.2382 2 10.2329 2 10.2276C2 10.2223 2 10.217 2 10.2117C2 10.2064 2 10.2011 2 10.1958C2 10.1904 2 10.1851 2 10.1798C2 10.1745 2 10.1692 2 10.1639C2 10.1586 2 10.1533 2 10.148C2 10.1427 2 10.1374 2 10.132C2 10.1267 2 10.1214 2 10.1161C2 10.1108 2 10.1055 2 10.1002C2 10.0948 2 10.0895 2 10.0842C2 10.0789 2 10.0736 2 10.0682C2 10.0629 2 10.0576 2 10.0523C2 10.0469 2 10.0416 2 10.0363C2 10.031 2 10.0256 2 10.0203C2 10.015 2 10.0096 2 10.0043C2 9.99897 2 9.99364 2 9.98831C2 9.98298 2 9.97764 2 9.97231C2 9.96697 2 9.96164 2 9.9563C2 9.95096 2 9.94562 2 9.94028C2 9.93494 2 9.9296 2 9.92426C2 9.91892 2 9.91358 2 9.90824C2 9.90289 2 9.89755 2 9.89221C2 9.88686 2 9.88151 2 9.87617C2 9.87082 2 9.86547 2 9.86013C2 9.85478 2 9.84943 2 9.84408C2 9.83873 2 9.83338 2 9.82803C2 9.82267 2 9.81732 2 9.81197C2 9.80661 2 9.80126 2 9.79591C2 9.79055 2 9.7852 2 9.77984C2 9.77448 2 9.76912 2 9.76377C2 9.75841 2 9.75305 2 9.74769C2 9.74233 2 9.73697 2 9.73161C2 9.72625 2 9.72089 2 9.71552C2 9.71016 2 9.7048 2 9.69943C2 9.69407 2 9.68871 2 9.68334C2 9.67797 2 9.67261 2 9.66724C2 9.66188 2 9.65651 2 9.65114C2 9.64577 2 9.6404 2 9.63503C2 9.62967 2 9.6243 2 9.61893C2 9.61356 2 9.60818 2 9.60281C2 9.59744 2 9.59207 2 9.5867C2 9.58132 2 9.57595 2 9.57058C2 9.5652 2 9.55983 2 9.55445C2 9.54908 2 9.5437 2 9.53833C2 9.53295 2 9.52757 2 9.5222C2 9.51682 2 9.51144 2 9.50607C2 9.50069 2 9.49531 2 9.48993C2 9.48455 2 9.47917 2 9.47379C2 9.46841 2 9.46303 2 9.45765C2 9.45227 2 9.44689 2 9.44151C2 9.43613 2 9.43074 2 9.42536C2 9.41998 2 9.4146 2 9.40921C2 9.40383 2 9.39845 2 9.39306C2 9.38768 2 9.3823 2 9.37691C2 9.37153 2 9.36614 2 9.36076C2 9.35537 2 9.34999 2 9.3446C2 9.33922 2 9.33383 2 9.32844C2 9.32306 2 9.31767 2 9.31228C2 9.3069 2 9.30151 2 9.29612C2 9.29074 2 9.28535 2 9.27996C2 9.27457 2 9.26918 2 9.2638C2 9.25841 2 9.25302 2 9.24763C2 9.24224 2 9.23685 2 9.23146C2 9.22608 2 9.22069 2 9.2153C2 9.20991 2 9.20452 2 9.19913C2 9.19374 2 9.18835 2 9.18296C2 9.17757 2 9.17218 2 9.16679C2 9.1614 2 9.15601 2 9.15062C2 9.14523 2 9.13984 2 9.13445C2 9.12906 2 9.12367 2 9.11828C2 9.11289 2 9.1075 2 9.1021C2 9.09671 2 9.09132 2 9.08593C2 9.08054 2 9.07515 2 9.06976C2 9.06437 2 9.05898 2 9.05359C2 9.0482 2 9.04281 2 9.03742C2 9.03203 2 9.02664 2 9.02124C2 9.01585 2 9.01046 2 9.00507C2 8.99968 2 8.99429 2 8.9889C2 8.98351 2 8.97812 2 8.97273C2 8.96734 2 8.96195 2 8.95656C2 8.95117 2 8.94578 2 8.94039C2 8.935 2 8.92962 2 8.92423C2 8.91884 2 8.91345 2 8.90806C2 8.90267 2 8.89728 2 8.89189C2 8.8865 2 8.88112 2 8.87573C2 8.87034 2 8.86495 2 8.85957C2 8.85418 2 8.84879 2 8.8434C2 8.83802 2 8.83263 2 8.82724C2 8.82186 2 8.81647 2 8.81108C2 8.8057 2 8.80031 2 8.79493C2 8.78954 2 8.78416 2 8.77877C2 8.77339 2 8.768 2 8.76262C2 8.75723 2 8.75185 2 8.74647C2 8.74108 2 8.7357 2 8.73032C2 8.72494 2 8.71955 2 8.71417C2 8.70879 2 8.70341 2 8.69803C2 8.69265 2 8.68727 2 8.68189C2 8.67651 2 8.67113 2 8.66575C2 8.66037 2 8.65499 2 8.64961C2 8.64423 2 8.63885 2 8.63348C2 8.6281 2 8.62272 2 8.61735C2 8.61197 2 8.60659 2 8.60122C2 8.59584 2 8.59047 2 8.58509C2 8.57972 2 8.57435 2 8.56897C2 8.5636 2 8.55823 2 8.55285C2 8.54748 2 8.54211 2 8.53674C2 8.53137 2 8.526 2 8.52063C2 8.51526 2 8.50989 2 8.50452C2 8.49915 2 8.49378 2 8.48842C2 8.48305 2 8.47768 2 8.47232C2 8.46695 2 8.46159 2 8.45622C2 8.45086 2 8.44549 2 8.44013C2 8.43477 2 8.4294 2 8.42404C2 8.41868 2 8.41332 2 8.40796C2 8.4026 2 8.39724 2 8.39188C2 8.38652 2 8.38116 2 8.37581C2 8.37045 2 8.36509 2 8.35974C2 8.35438 2 8.34903 2 8.34367C2 8.33832 2 8.33297 2 8.32761C2 8.32226 2 8.31691 2 8.31156C2 8.30621 2 8.30086 2 8.29551C2 8.29016 2 8.28481 2 8.27946C2 8.27412 2 8.26877 2 8.26342C2 8.25808 2 8.25273 2 8.24739C2 8.24205 2 8.2367 2 8.23136C2 8.22602 2 8.22068 2 8.21534C2 8.21 2 8.20466 2 8.19932C2 8.19398 2 8.18865 2 8.18331C2 8.17797 2 8.17264 2 8.1673C2 8.16197 2 8.15664 2 8.1513C2 8.14597 2 8.14064 2 8.13531C2 8.12998 2 8.12465 2 8.11932C2 8.114 2 8.10867 2 8.10334C2 8.09802 2 8.09269 2 8.08737C2 8.08204 2 8.07672 2 8.0714C2 8.06608 2 8.06076 2 8.05544C2 8.05012 2 8.0448 2 8.03949C2 8.03417 2 8.02885 2 8.02354C2 8.01822 2 8.01291 2 8.0076C2 8.00228 2 7.99697 2 7.99166C2 7.98635 2 7.98104 2 7.97574C2 7.97043 2 7.96512 2 7.95982C2 7.95451 2 7.94921 2 7.94391C2 7.9386 2 7.9333 2 7.928C2 7.9227 2 7.9174 2 7.91211C2 7.90681 2 7.90151 2 7.89622C2 7.89092 2 7.88563 2 7.88034C2 7.87505 2 7.86975 2 7.86446C2 7.85917 2 7.85389 2 7.8486C2 7.84331 2 7.83803 2 7.83274C2 7.82746 2 7.82218 2 7.81689C2 7.81161 2 7.80633 2 7.80105C2 7.79578 2 7.7905 2 7.78522C2 7.77995 2 7.77467 2 7.7694C2 7.76413 2 7.75886 2 7.75359C2 7.74832 2 7.74305 2 7.73778C2 7.73251 2 7.72725 2 7.72198C2 7.71672 2 7.71146 2 7.7062C2 7.70094 2 7.69568 2 7.69042C2 7.68516 2 7.6799 2 7.67465C2 7.6694 2 7.66414 2 7.65889C2 7.65364 2 7.64839 2 7.64314C2 7.63789 2 7.63264 2 7.6274C2 7.62215 2 7.61691 2 7.61167C2 7.60643 2 7.60119 2 7.59595C2 7.59071 2 7.58547 2 7.58024C2 7.575 2 7.56977 2 7.56453C2 7.5593 2 7.55407 2 7.54884C2 7.54361 2 7.53839 2 7.53316C2 7.52794 2 7.52271 2 7.51749C2 7.51227 2 7.50705 2 7.50183C2 7.49661 2 7.4914 2 7.48618C2 7.48097 2 7.47575 2 7.47054C2 7.46533 2 7.46012 2 7.45491C2 7.44971 2 7.4445 2 7.4393C2 7.43409 2 7.42889 2 7.42369C2 7.41849 2 7.41329 2 7.40809C2 7.4029 2 7.3977 2 7.39251C2 7.38732 2 7.38212 2 7.37694C2 7.37175 2 7.36656 2 7.36137C2 7.35619 2 7.351 2 7.34582C2 7.34064 2 7.33546 2 7.33028C2 7.32511 2 7.31993 2 7.31476C2 7.30958 2 7.30441 2 7.29924C2 7.29407 2 7.2889 2 7.28374C2 7.27857 2 7.27341 2 7.26825C2 7.26309 2 7.25793 2 7.25277C2 7.24761 2 7.24245 2 7.2373C2 7.23215 2 7.227 2 7.22185C2 7.2167 2 7.21155 2 7.2064C2 7.20126 2 7.19612 2 7.19097C2 7.18583 2 7.18069 2 7.17556C2 7.17042 2 7.16529 2 7.16015C2 7.15502 2 7.14989 2 7.14476C2 7.13963 2 7.13451 2 7.12938C2 7.12426 2 7.11914 2 7.11402C2 7.1089 2 7.10378 2 7.09867C2 7.09355 2 7.08844 2 7.08333C2 7.07822 2 7.07311 2 7.068C2 7.0629 2 7.05779 2 7.05269C2 7.04759 2 7.04249 2 7.03739C2 7.03229 2 7.0272 2 7.02211C2 7.01702 2 7.01192 2 7.00684C2 7.00175 2 6.99666 2 6.99158C2 6.9865 2 6.98142 2 6.97634C2 6.97126 2 6.96618 2 6.96111C2 6.95604 2 6.95096 2 6.94589C2 6.94083 2 6.93576 2 6.9307C2 6.92563 2 6.92057 2 6.91551C2 6.91045 2 6.90539 2 6.90034C2 6.89528 2 6.89023 2 6.88518C2 6.88013 2 6.87509 2 6.87004C2 6.865 2 6.85995 2 6.85492C2 6.84988 2 6.84484 2 6.8398C2 6.83477 2 6.82974 2 6.82471C2 6.81968 2 6.81465 2 6.80963C2 6.8046 2 6.79958 2 6.79456C2 6.78954 2 6.78453 2 6.77951C2 6.7745 2 6.76949 2 6.76448C2 6.75947 2 6.75446 2 6.74946C2 6.74445 2 6.73945 2 6.73445C2 6.72946 2 6.72446 2 6.71947C2 6.71447 2 6.70948 2 6.7045C2 6.69951 2 6.69452 2 6.68954C2 6.68456 2 6.67958 2 6.6746C2 6.66962 2 6.66465 2 6.65968C2 6.65471 2 6.64974 2 6.64477C2 6.63981 2 6.63484 2 6.62988C2 6.62492 2 6.61996 2 6.61501C2 6.61005 2 6.6051 2 6.60015C2 6.5952 2 6.59026 2 6.58531C2 6.58037 2 6.57543 2 6.57049C2 6.56555 2 6.56062 2 6.55568C2 6.55075 2 6.54582 2 6.5409C2 6.53597 2 6.53105 2 6.52612C2 6.5212 2 6.51629 2 6.51137C2 6.50646 2 6.50154 2 6.49663C2 6.49173 2 6.48682 2 6.48192C2 6.47701 2 6.47211 2 6.46721C2 6.46232 2 6.45742 2 6.45253C2 6.44764 2 6.44275 2 6.43787C2 6.43298 2 6.4281 2 6.42322C2 6.41834 2 6.41346 2 6.40859C2 6.40372 2 6.39885 2 6.39398C2 6.38911 2 6.38425 2 6.37939C2 6.37452 2 6.36967 2 6.36481C2 6.35996 2 6.3551 2 6.35026C2 6.34541 2 6.34056 2 6.33572C2 6.33088 2 6.32604 2 6.3212C2 6.31636 2 6.31153 2 6.3067C2 6.30187 2 6.29704 2 6.29222C2 6.2874 2 6.28258 2 6.27776C2 6.27294 2 6.26813 2 6.26332C2 6.25851 2 6.2537 2 6.24889C2 6.24409 2 6.23929 2 6.23449H0C0 6.23929 0 6.24409 0 6.24889C0 6.2537 0 6.25851 0 6.26332C0 6.26813 0 6.27294 0 6.27776C0 6.28258 0 6.2874 0 6.29222C0 6.29704 0 6.30187 0 6.3067C0 6.31153 0 6.31636 0 6.3212C0 6.32604 0 6.33088 0 6.33572C0 6.34056 0 6.34541 0 6.35026C0 6.3551 0 6.35996 0 6.36481C0 6.36967 0 6.37452 0 6.37939C0 6.38425 0 6.38911 0 6.39398C0 6.39885 0 6.40372 0 6.40859C0 6.41346 0 6.41834 0 6.42322C0 6.4281 0 6.43298 0 6.43787C0 6.44275 0 6.44764 0 6.45253C0 6.45742 0 6.46232 0 6.46721C0 6.47211 0 6.47701 0 6.48192C0 6.48682 0 6.49173 0 6.49663C0 6.50154 0 6.50646 0 6.51137C0 6.51629 0 6.5212 0 6.52612C0 6.53105 0 6.53597 0 6.5409C0 6.54582 0 6.55075 0 6.55568C0 6.56062 0 6.56555 0 6.57049C0 6.57543 0 6.58037 0 6.58531C0 6.59026 0 6.5952 0 6.60015C0 6.6051 0 6.61005 0 6.61501C0 6.61996 0 6.62492 0 6.62988C0 6.63484 0 6.63981 0 6.64477C0 6.64974 0 6.65471 0 6.65968C0 6.66465 0 6.66962 0 6.6746C0 6.67958 0 6.68456 0 6.68954C0 6.69452 0 6.69951 0 6.7045C0 6.70948 0 6.71447 0 6.71947C0 6.72446 0 6.72946 0 6.73445C0 6.73945 0 6.74445 0 6.74946C0 6.75446 0 6.75947 0 6.76448C0 6.76949 0 6.7745 0 6.77951C0 6.78453 0 6.78954 0 6.79456C0 6.79958 0 6.8046 0 6.80963C0 6.81465 0 6.81968 0 6.82471C0 6.82974 0 6.83477 0 6.8398C0 6.84484 0 6.84988 0 6.85492C0 6.85995 0 6.865 0 6.87004C0 6.87509 0 6.88013 0 6.88518C0 6.89023 0 6.89528 0 6.90034C0 6.90539 0 6.91045 0 6.91551C0 6.92057 0 6.92563 0 6.9307C0 6.93576 0 6.94083 0 6.94589C0 6.95096 0 6.95604 0 6.96111C0 6.96618 0 6.97126 0 6.97634C0 6.98142 0 6.9865 0 6.99158C0 6.99666 0 7.00175 0 7.00684C0 7.01192 0 7.01702 0 7.02211C0 7.0272 0 7.03229 0 7.03739C0 7.04249 0 7.04759 0 7.05269C0 7.05779 0 7.0629 0 7.068C0 7.07311 0 7.07822 0 7.08333C0 7.08844 0 7.09355 0 7.09867C0 7.10378 0 7.1089 0 7.11402C0 7.11914 0 7.12426 0 7.12938C0 7.13451 0 7.13963 0 7.14476C0 7.14989 0 7.15502 0 7.16015C0 7.16529 0 7.17042 0 7.17556C0 7.18069 0 7.18583 0 7.19097C0 7.19612 0 7.20126 0 7.2064C0 7.21155 0 7.2167 0 7.22185C0 7.227 0 7.23215 0 7.2373C0 7.24245 0 7.24761 0 7.25277C0 7.25793 0 7.26309 0 7.26825C0 7.27341 0 7.27857 0 7.28374C0 7.2889 0 7.29407 0 7.29924C0 7.30441 0 7.30958 0 7.31476C0 7.31993 0 7.32511 0 7.33028C0 7.33546 0 7.34064 0 7.34582C0 7.351 0 7.35619 0 7.36137C0 7.36656 0 7.37175 0 7.37694C0 7.38212 0 7.38732 0 7.39251C0 7.3977 0 7.4029 0 7.40809C0 7.41329 0 7.41849 0 7.42369C0 7.42889 0 7.43409 0 7.4393C0 7.4445 0 7.44971 0 7.45491C0 7.46012 0 7.46533 0 7.47054C0 7.47575 0 7.48097 0 7.48618C0 7.4914 0 7.49661 0 7.50183C0 7.50705 0 7.51227 0 7.51749C0 7.52271 0 7.52794 0 7.53316C0 7.53839 0 7.54361 0 7.54884C0 7.55407 0 7.5593 0 7.56453C0 7.56977 0 7.575 0 7.58024C0 7.58547 0 7.59071 0 7.59595C0 7.60119 0 7.60643 0 7.61167C0 7.61691 0 7.62215 0 7.6274C0 7.63264 0 7.63789 0 7.64314C0 7.64839 0 7.65364 0 7.65889C0 7.66414 0 7.6694 0 7.67465C0 7.6799 0 7.68516 0 7.69042C0 7.69568 0 7.70094 0 7.7062C0 7.71146 0 7.71672 0 7.72198C0 7.72725 0 7.73251 0 7.73778C0 7.74305 0 7.74832 0 7.75359C0 7.75886 0 7.76413 0 7.7694C0 7.77467 0 7.77995 0 7.78522C0 7.7905 0 7.79578 0 7.80105C0 7.80633 0 7.81161 0 7.81689C0 7.82218 0 7.82746 0 7.83274C0 7.83803 0 7.84331 0 7.8486C0 7.85389 0 7.85917 0 7.86446C0 7.86975 0 7.87505 0 7.88034C0 7.88563 0 7.89092 0 7.89622C0 7.90151 0 7.90681 0 7.91211C0 7.9174 0 7.9227 0 7.928C0 7.9333 0 7.9386 0 7.94391C0 7.94921 0 7.95451 0 7.95982C0 7.96512 0 7.97043 0 7.97574C0 7.98104 0 7.98635 0 7.99166C0 7.99697 0 8.00228 0 8.0076C0 8.01291 0 8.01822 0 8.02354C0 8.02885 0 8.03417 0 8.03949C0 8.0448 0 8.05012 0 8.05544C0 8.06076 0 8.06608 0 8.0714C0 8.07672 0 8.08204 0 8.08737C0 8.09269 0 8.09802 0 8.10334C0 8.10867 0 8.114 0 8.11932C0 8.12465 0 8.12998 0 8.13531C0 8.14064 0 8.14597 0 8.1513C0 8.15664 0 8.16197 0 8.1673C0 8.17264 0 8.17797 0 8.18331C0 8.18865 0 8.19398 0 8.19932C0 8.20466 0 8.21 0 8.21534C0 8.22068 0 8.22602 0 8.23136C0 8.2367 0 8.24205 0 8.24739C0 8.25273 0 8.25808 0 8.26342C0 8.26877 0 8.27412 0 8.27946C0 8.28481 0 8.29016 0 8.29551C0 8.30086 0 8.30621 0 8.31156C0 8.31691 0 8.32226 0 8.32761C0 8.33297 0 8.33832 0 8.34367C0 8.34903 0 8.35438 0 8.35974C0 8.36509 0 8.37045 0 8.37581C0 8.38116 0 8.38652 0 8.39188C0 8.39724 0 8.4026 0 8.40796C0 8.41332 0 8.41868 0 8.42404C0 8.4294 0 8.43477 0 8.44013C0 8.44549 0 8.45086 0 8.45622C0 8.46159 0 8.46695 0 8.47232C0 8.47768 0 8.48305 0 8.48842C0 8.49378 0 8.49915 0 8.50452C0 8.50989 0 8.51526 0 8.52063C0 8.526 0 8.53137 0 8.53674C0 8.54211 0 8.54748 0 8.55285C0 8.55823 0 8.5636 0 8.56897C0 8.57435 0 8.57972 0 8.58509C0 8.59047 0 8.59584 0 8.60122C0 8.60659 0 8.61197 0 8.61735C0 8.62272 0 8.6281 0 8.63348C0 8.63885 0 8.64423 0 8.64961C0 8.65499 0 8.66037 0 8.66575C0 8.67113 0 8.67651 0 8.68189C0 8.68727 0 8.69265 0 8.69803C0 8.70341 0 8.70879 0 8.71417C0 8.71955 0 8.72494 0 8.73032C0 8.7357 0 8.74108 0 8.74647C0 8.75185 0 8.75723 0 8.76262C0 8.768 0 8.77339 0 8.77877C0 8.78416 0 8.78954 0 8.79493C0 8.80031 0 8.8057 0 8.81108C0 8.81647 0 8.82186 0 8.82724C0 8.83263 0 8.83802 0 8.8434C0 8.84879 0 8.85418 0 8.85957C0 8.86495 0 8.87034 0 8.87573C0 8.88112 0 8.8865 0 8.89189C0 8.89728 0 8.90267 0 8.90806C0 8.91345 0 8.91884 0 8.92423C0 8.92962 0 8.935 0 8.94039C0 8.94578 0 8.95117 0 8.95656C0 8.96195 0 8.96734 0 8.97273C0 8.97812 0 8.98351 0 8.9889C0 8.99429 0 8.99968 0 9.00507C0 9.01046 0 9.01585 0 9.02124C0 9.02664 0 9.03203 0 9.03742C0 9.04281 0 9.0482 0 9.05359C0 9.05898 0 9.06437 0 9.06976C0 9.07515 0 9.08054 0 9.08593C0 9.09132 0 9.09671 0 9.1021C0 9.1075 0 9.11289 0 9.11828C0 9.12367 0 9.12906 0 9.13445C0 9.13984 0 9.14523 0 9.15062C0 9.15601 0 9.1614 0 9.16679C0 9.17218 0 9.17757 0 9.18296C0 9.18835 0 9.19374 0 9.19913C0 9.20452 0 9.20991 0 9.2153C0 9.22069 0 9.22608 0 9.23146C0 9.23685 0 9.24224 0 9.24763C0 9.25302 0 9.25841 0 9.2638C0 9.26918 0 9.27457 0 9.27996C0 9.28535 0 9.29074 0 9.29612C0 9.30151 0 9.3069 0 9.31228C0 9.31767 0 9.32306 0 9.32844C0 9.33383 0 9.33922 0 9.3446C0 9.34999 0 9.35537 0 9.36076C0 9.36614 0 9.37153 0 9.37691C0 9.3823 0 9.38768 0 9.39306C0 9.39845 0 9.40383 0 9.40921C0 9.4146 0 9.41998 0 9.42536C0 9.43074 0 9.43613 0 9.44151C0 9.44689 0 9.45227 0 9.45765C0 9.46303 0 9.46841 0 9.47379C0 9.47917 0 9.48455 0 9.48993C0 9.49531 0 9.50069 0 9.50607C0 9.51144 0 9.51682 0 9.5222C0 9.52757 0 9.53295 0 9.53833C0 9.5437 0 9.54908 0 9.55445C0 9.55983 0 9.5652 0 9.57058C0 9.57595 0 9.58132 0 9.5867C0 9.59207 0 9.59744 0 9.60281C0 9.60818 0 9.61356 0 9.61893C0 9.6243 0 9.62967 0 9.63503C0 9.6404 0 9.64577 0 9.65114C0 9.65651 0 9.66188 0 9.66724C0 9.67261 0 9.67797 0 9.68334C0 9.68871 0 9.69407 0 9.69943C0 9.7048 0 9.71016 0 9.71552C0 9.72089 0 9.72625 0 9.73161C0 9.73697 0 9.74233 0 9.74769C0 9.75305 0 9.75841 0 9.76377C0 9.76912 0 9.77448 0 9.77984C0 9.7852 0 9.79055 0 9.79591C0 9.80126 0 9.80661 0 9.81197C0 9.81732 0 9.82267 0 9.82803C0 9.83338 0 9.83873 0 9.84408C0 9.84943 0 9.85478 0 9.86013C0 9.86547 0 9.87082 0 9.87617C0 9.88151 0 9.88686 0 9.89221C0 9.89755 0 9.90289 0 9.90824C0 9.91358 0 9.91892 0 9.92426C0 9.9296 0 9.93494 0 9.94028C0 9.94562 0 9.95096 0 9.9563C0 9.96164 0 9.96697 0 9.97231C0 9.97764 0 9.98298 0 9.98831C0 9.99364 0 9.99897 0 10.0043C0 10.0096 0 10.015 0 10.0203C0 10.0256 0 10.031 0 10.0363C0 10.0416 0 10.0469 0 10.0523C0 10.0576 0 10.0629 0 10.0682C0 10.0736 0 10.0789 0 10.0842C0 10.0895 0 10.0948 0 10.1002C0 10.1055 0 10.1108 0 10.1161C0 10.1214 0 10.1267 0 10.132C0 10.1374 0 10.1427 0 10.148C0 10.1533 0 10.1586 0 10.1639C0 10.1692 0 10.1745 0 10.1798C0 10.1851 0 10.1904 0 10.1958C0 10.2011 0 10.2064 0 10.2117C0 10.217 0 10.2223 0 10.2276C0 10.2329 0 10.2382 0 10.2435C0 10.2488 0 10.254 0 10.2593C0 10.2646 0 10.2699 0 10.2752C0 10.2805 0 10.2858 0 10.2911C0 10.2964 0 10.3017 0 10.3069C0 10.3122 0 10.3175 0 10.3228C0 10.3281 0 10.3334 0 10.3386C0 10.3439 0 10.3492 0 10.3545C0 10.3598 0 10.365 0 10.3703C0 10.3756 0 10.3809 0 10.3861C0 10.3914 0 10.3967 0 10.4019C0 10.4072 0 10.4125 0 10.4177C0 10.423 0 10.4283 0 10.4335C0 10.4388 0 10.4441 0 10.4493C0 10.4546 0 10.4598 0 10.4651C0 10.4703 0 10.4756 0 10.4809C0 10.4861 0 10.4914 0 10.4966C0 10.5019 0 10.5071 0 10.5124C0 10.5176 0 10.5228 0 10.5281C0 10.5333 0 10.5386 0 10.5438C0 10.5491 0 10.5543 0 10.5595C0 10.5648 0 10.57 0 10.5752C0 10.5805 0 10.5857 0 10.5909C0 10.5962 0 10.6014 0 10.6066C0 10.6118 0 10.6171 0 10.6223C0 10.6275 0 10.6327 0 10.638C0 10.6432 0 10.6484 0 10.6536C0 10.6588 0 10.6641 0 10.6693C0 10.6745 0 10.6797 0 10.6849C0 10.6901 0 10.6953 0 10.7005C0 10.7057 0 10.7109 0 10.7161C0 10.7213 0 10.7265 0 10.7317C0 10.7369 0 10.7421 0 10.7473C0 10.7525 0 10.7577 0 10.7629C0 10.7681 0 10.7733 0 10.7785C0 10.7837 0 10.7888 0 10.794C0 10.7992 0 10.8044 0 10.8096C0 10.8148 0 10.8199 0 10.8251C0 10.8303 0 10.8355 0 10.8406C0 10.8458 0 10.851 0 10.8561C0 10.8613 0 10.8665 0 10.8716C0 10.8768 0 10.882 0 10.8871C0 10.8923 0 10.8974 0 10.9026C0 10.9078 0 10.9129 0 10.9181C0 10.9232 0 10.9284 0 10.9335C0 10.9387 0 10.9438 0 10.9489C0 10.9541 0 10.9592 0 10.9644C0 10.9695 0 10.9746 0 10.9798C0 10.9849 0 10.99 0 10.9952C0 11.0003 0 11.0054 0 11.0106C0 11.0157 0 11.0208 0 11.0259C0 11.0311 0 11.0362 0 11.0413C0 11.0464 0 11.0515 0 11.0566C0 11.0618 0 11.0669 0 11.072C0 11.0771 0 11.0822 0 11.0873C0 11.0924 0 11.0975 0 11.1026C0 11.1077 0 11.1128 0 11.1179C0 11.123 0 11.1281 0 11.1332C0 11.1383 0 11.1433 0 11.1484C0 11.1535 0 11.1586 0 11.1637C0 11.1688 0 11.1738 0 11.1789C0 11.184 0 11.1891 0 11.1941C0 11.1992 0 11.2043 0 11.2093C0 11.2144 0 11.2195 0 11.2245C0 11.2296 0 11.2347 0 11.2397C0 11.2448 0 11.2498 0 11.2549C0 11.2599 0 11.265 0 11.27C0 11.2751 0 11.2801 0 11.2852C0 11.2902 0 11.2952 0 11.3003C0 11.3053 0 11.3104 0 11.3154C0 11.3204 0 11.3255 0 11.3305C0 11.3355 0 11.3405 0 11.3456C0 11.3506 0 11.3556 0 11.3606C0 11.3656 0 11.3706 0 11.3757C0 11.3807 0 11.3857 0 11.3907C0 11.3957 0 11.4007 0 11.4057C0 11.4107 0 11.4157 0 11.4207C0 11.4257 0 11.4307 0 11.4357C0 11.4407 0 11.4456 0 11.4506C0 11.4556 0 11.4606 0 11.4656C0 11.4706 0 11.4755 0 11.4805C0 11.4855 0 11.4905 0 11.4954C0 11.5004 0 11.5054 0 11.5103C0 11.5153 0 11.5202 0 11.5252C0 11.5302 0 11.5351 0 11.5401C0 11.545 0 11.55 0 11.5549C0 11.5599 0 11.5648 0 11.5698C0 11.5747 0 11.5796 0 11.5846C0 11.5895 0 11.5944 0 11.5994C0 11.6043 0 11.6092 0 11.6141C0 11.6191 0 11.624 0 11.6289C0 11.6338 0 11.6387 0 11.6437C0 11.6486 0 11.6535 0 11.6584C0 11.6633 0 11.6682 0 11.6731C0 11.678 0 11.6829 0 11.6878C0 11.6927 0 11.6976 0 11.7025C0 11.7073 0 11.7122 0 11.7171C0 11.722 0 11.7269 0 11.7318C0 11.7366 0 11.7415 0 11.7464C0 11.7512 0 11.7561 0 11.761C0 11.7658 0 11.7707 0 11.7756C0 11.7804 0 11.7853 0 11.7901C0 11.795 0 11.7998 0 11.8047C0 11.8095 0 11.8144 0 11.8192C0 11.824 0 11.8289 0 11.8337C0 11.8385 0 11.8434 0 11.8482C0 11.853 0 11.8579 0 11.8627C0 11.8675 0 11.8723 0 11.8771C0 11.8819 0 11.8868 0 11.8916C0 11.8964 0 11.9012 0 11.906C0 11.9108 0 11.9156 0 11.9204C0 11.9252 0 11.93 0 11.9347C0 11.9395 0 11.9443 0 11.9491C0 11.9539 0 11.9587 0 11.9634C0 11.9682 0 11.973 0 11.9778C0 11.9825 0 11.9873 0 11.992C0 11.9968 0 12.0016 0 12.0063C0 12.0111 0 12.0158 0 12.0206C0 12.0253 0 12.0301 0 12.0348C0 12.0396 0 12.0443 0 12.049C0 12.0538 0 12.0585 0 12.0632C0 12.0679 0 12.0727 0 12.0774C0 12.0821 0 12.0868 0 12.0915C0 12.0963 0 12.101 0 12.1057C0 12.1104 0 12.1151 0 12.1198C0 12.1245 0 12.1292 0 12.1339C0 12.1386 0 12.1433 0 12.1479C0 12.1526 0 12.1573 0 12.162C0 12.1667 0 12.1713 0 12.176C0 12.1807 0 12.1854 0 12.19C0 12.1947 0 12.1994 0 12.204C0 12.2087 0 12.2133 0 12.218C0 12.2226 0 12.2273 0 12.2319C0 12.2366 0 12.2412 0 12.2458C0 12.2505 0 12.2551 0 12.2597C0 12.2643 0 12.269 0 12.2736C0 12.2782 0 12.2828 0 12.2874C0 12.2921 0 12.2967 0 12.3013C0 12.3059 0 12.3105 0 12.3151C0 12.3197 0 12.3243 0 12.3289C0 12.3335 0 12.338 0 12.3426C0 12.3472 0 12.3518 0 12.3564C0 12.3609 0 12.3655 0 12.3701C0 12.3746 0 12.3792 0 12.3838C0 12.3883 0 12.3929 0 12.3974C0 12.402 0 12.4065 0 12.4111C0 12.4156 0 12.4202 0 12.4247C0 12.4292 0 12.4338 0 12.4383C0 12.4428 0 12.4474 0 12.4519C0 12.4564 0 12.4609 0 12.4654C0 12.4699 0 12.4745 0 12.479C0 12.4835 0 12.488 0 12.4925C0 12.497 0 12.5015 0 12.5059C0 12.5104 0 12.5149 0 12.5194C0 12.5239 0 12.5284 0 12.5328C0 12.5373 0 12.5418 0 12.5462C0 12.5507 0 12.5552 0 12.5596C0 12.5641 0 12.5685 0 12.573C0 12.5774 0 12.5819 0 12.5863C0 12.5908 0 12.5952 0 12.5996C0 12.6041 0 12.6085 0 12.6129C0 12.6173 0 12.6218 0 12.6262C0 12.6306 0 12.635 0 12.6394C0 12.6438 0 12.6482 0 12.6526C0 12.657 0 12.6614 0 12.6658C0 12.6702 0 12.6746 0 12.679C0 12.6833 0 12.6877 0 12.6921C0 12.6965 0 12.7008 0 12.7052C0 12.7096 0 12.7139 0 12.7183C0 12.7226 0 12.727 0 12.7313C0 12.7357 0 12.74 0 12.7444C0 12.7487 0 12.7531 0 12.7574C0 12.7617 0 12.766 0 12.7704C0 12.7747 0 12.779 0 12.7833C0 12.7876 0 12.7919 0 12.7962C0 12.8005 0 12.8048 0 12.8091C0 12.8134 0 12.8177 0 12.822C0 12.8263 0 12.8306 0 12.8349C0 12.8391 0 12.8434 0 12.8477C0 12.852 0 12.8562 0 12.8605C0 12.8647 0 12.869 0 12.8732C0 12.8775 0 12.8817 0 12.886C0 12.8902 0 12.8945 0 12.8987C0 12.9029 0 12.9072 0 12.9114C0 12.9156 0 12.9198 0 12.924C0 12.9283 0 12.9325 0 12.9367C0 12.9409 0 12.9451 0 12.9493C0 12.9535 0 12.9577 0 12.9618C0 12.966 0 12.9702 0 12.9744C0 12.9786 0 12.9827 0 12.9869C0 12.9911 0 12.9952 0 12.9994C0 13.0036 0 13.0077 0 13.0119C0 13.016 0 13.0202 0 13.0243C0 13.0284 0 13.0326 0 13.0367C0 13.0408 0 13.045 0 13.0491C0 13.0532 0 13.0573 0 13.0614C0 13.0655 0 13.0696 0 13.0738C0 13.0779 0 13.082 0 13.086C0 13.0901 0 13.0942 0 13.0983C0 13.1024 0 13.1065 0 13.1105C0 13.1146 0 13.1187 0 13.1227C0 13.1268 0 13.1309 0 13.1349C0 13.139 0 13.143 0 13.1471C0 13.1511 0 13.1551 0 13.1592C0 13.1632 0 13.1672 0 13.1713C0 13.1753 0 13.1793 0 13.1833C0 13.1873 0 13.1914 0 13.1954C0 13.1994 0 13.2034 0 13.2074C0 13.2113 0 13.2153 0 13.2193C0 13.2233 0 13.2273 0 13.2313C0 13.2352 0 13.2392 0 13.2432C0 13.2471 0 13.2511 0 13.255C0 13.259 0 13.263 0 13.2669C0 13.2708 0 13.2748 0 13.2787C0 13.2826 0 13.2866 0 13.2905C0 13.2944 0 13.2983 0 13.3023C0 13.3062 0 13.3101 0 13.314C0 13.3179 0 13.3218 0 13.3257C0 13.3296 0 13.3335 0 13.3373C0 13.3412 0 13.3451 0 13.349C0 13.3528 0 13.3567 0 13.3606C0 13.3644 0 13.3683 0 13.3721C0 13.376 0 13.3798 0 13.3837C0 13.3875 0 13.3914 0 13.3952C0 13.399 0 13.4028 0 13.4067C0 13.4105 0 13.4143 0 13.4181C0 13.4219 0 13.4257 0 13.4295C0 13.4333 0 13.4371 0 13.4409C0 13.4447 0 13.4485 0 13.4522C0 13.456 0 13.4598 0 13.4635C0 13.4673 0 13.4711 0 13.4748C0 13.4786 0 13.4823 0 13.4861C0 13.4898 0 13.4936 0 13.4973C0 13.501 0 13.5048 0 13.5085C0 13.5122 0 13.5159 0 13.5196C0 13.5233 0 13.5271 0 13.5308C0 13.5345 0 13.5382 0 13.5418C0 13.5455 0 13.5492 0 13.5529C0 13.5566 0 13.5602 0 13.5639C0 13.5676 0 13.5712 0 13.5749C0 13.5786 0 13.5822 0 13.5859C0 13.5895 0 13.5931 0 13.5968C0 13.6004 0 13.604 0 13.6077C0 13.6113 0 13.6149 0 13.6185C0 13.6221 0 13.6257 0 13.6293C0 13.6329 0 13.6365 0 13.6401C0 13.6437 0 13.6473 0 13.6509C0 13.6544 0 13.658 0 13.6616C0 13.6652 0 13.6687 0 13.6723C0 13.6758 0 13.6794 0 13.6829C0 13.6865 0 13.69 0 13.6935C0 13.6971 0 13.7006 0 13.7041C0 13.7076 0 13.7111 0 13.7147C0 13.7182 0 13.7217 0 13.7252C0 13.7287 0 13.7322 0 13.7356C0 13.7391 0 13.7426 0 13.7461C0 13.7496 0 13.753 0 13.7565C0 13.7599 0 13.7634 0 13.7669H2ZM8.55384 17.6589C8.51356 17.6387 8.5716 17.6678 8.5313 17.6476C8.51625 17.6401 8.52375 17.6438 8.50869 17.6363C8.49863 17.6313 8.47343 17.6187 8.46329 17.6136C8.46325 17.6136 8.41776 17.5908 8.41764 17.5908C8.37953 17.5717 8.43286 17.5984 8.39473 17.5793C8.35642 17.5602 8.41009 17.587 8.37176 17.5678C8.31026 17.5371 8.3411 17.5525 8.27929 17.5216C8.27542 17.5197 8.27155 17.5177 8.26767 17.5158C8.2638 17.5139 8.25992 17.5119 8.25604 17.51C8.24257 17.5033 8.2462 17.5051 8.23272 17.4983C8.22883 17.4964 8.22494 17.4944 8.22105 17.4925C8.21715 17.4905 8.21325 17.4886 8.20936 17.4866C8.20546 17.4847 8.20156 17.4827 8.19765 17.4808C8.19375 17.4788 8.18984 17.4769 8.18593 17.4749C8.14433 17.4541 8.1806 17.4723 8.13893 17.4514C8.07568 17.4198 8.15505 17.4595 8.09172 17.4278C8.09172 17.4278 8.04438 17.4042 8.04431 17.4041C8.02581 17.3949 8.03905 17.4015 8.02053 17.3922C8.01127 17.3876 8.00598 17.385 7.9967 17.3803C7.98613 17.375 7.95954 17.3617 7.9489 17.3564C7.94588 17.3549 7.904 17.334 7.90092 17.3324C7.82598 17.295 7.87958 17.3218 7.80441 17.2842C7.78288 17.2734 7.80171 17.2828 7.78017 17.2721C7.77613 17.27 7.77209 17.268 7.76804 17.266C7.76399 17.264 7.75994 17.2619 7.75589 17.2599C7.75184 17.2579 7.74779 17.2559 7.74374 17.2538C7.73969 17.2518 7.73563 17.2498 7.73158 17.2478C7.72752 17.2457 7.72346 17.2437 7.7194 17.2417C7.71534 17.2396 7.71128 17.2376 7.70722 17.2356C7.6557 17.2098 7.73435 17.2491 7.68282 17.2234C7.67875 17.2213 7.67468 17.2193 7.6706 17.2173C7.66653 17.2152 7.66245 17.2132 7.65838 17.2112C7.6457 17.2048 7.64659 17.2053 7.6339 17.1989C7.609 17.1865 7.6343 17.1991 7.60938 17.1867C7.56134 17.1626 7.60833 17.1861 7.56024 17.1621C7.52583 17.1449 7.54542 17.1547 7.51096 17.1374C7.45763 17.1108 7.5149 17.1394 7.46153 17.1127C7.44392 17.1039 7.45439 17.1092 7.43677 17.1004C7.3742 17.0691 7.47455 17.1192 7.41197 17.088C7.40784 17.0859 7.4037 17.0838 7.39956 17.0817C7.39543 17.0797 7.39129 17.0776 7.38715 17.0755C7.37748 17.0707 7.37196 17.0679 7.36229 17.0631C7.33413 17.049 7.34068 17.0523 7.31248 17.0382C7.31233 17.0381 7.26274 17.0133 7.26255 17.0132C7.2625 17.0132 7.2126 16.9883 7.21251 16.9882C7.15304 16.9585 7.17173 16.9678 7.11212 16.938C7.06363 16.9138 7.1103 16.9371 7.06178 16.9129C7.01695 16.8904 7.0562 16.9101 7.01134 16.8876C6.91411 16.839 7.00757 16.8858 6.91022 16.8371C6.84271 16.8033 6.87641 16.8202 6.8088 16.7864C6.78626 16.7751 6.72975 16.7468 6.70713 16.7355C6.70288 16.7334 6.69864 16.7313 6.6944 16.7292C6.69016 16.727 6.68591 16.7249 6.68167 16.7228C6.67844 16.7212 6.65944 16.7117 6.6562 16.7101C6.60342 16.6837 6.65803 16.711 6.60523 16.6846C6.60098 16.6825 6.59673 16.6803 6.59248 16.6782C6.58823 16.6761 6.58398 16.674 6.57973 16.6718C6.54194 16.6529 6.59202 16.678 6.55422 16.6591C6.54997 16.6569 6.54571 16.6548 6.54146 16.6527C6.5372 16.6506 6.53295 16.6484 6.5287 16.6463C6.52444 16.6442 6.52019 16.6421 6.51593 16.6399C6.51168 16.6378 6.50742 16.6357 6.50317 16.6335C6.47074 16.6173 6.48452 16.6242 6.45208 16.608C6.39405 16.579 6.45901 16.6115 6.40097 16.5825C6.39671 16.5803 6.39245 16.5782 6.38819 16.5761C6.38393 16.5739 6.37967 16.5718 6.3754 16.5697C6.37114 16.5675 6.36688 16.5654 6.36262 16.5633C6.35836 16.5611 6.3541 16.559 6.34983 16.5569C6.30447 16.5342 6.34405 16.554 6.29868 16.5313C6.27592 16.5199 6.29586 16.5299 6.2731 16.5185C6.23901 16.5015 6.28162 16.5228 6.24752 16.5057C6.23237 16.4982 6.2115 16.4877 6.19635 16.4801C6.19209 16.478 6.18782 16.4759 6.18356 16.4737C6.1793 16.4716 6.17503 16.4695 6.17077 16.4673C6.1665 16.4652 6.16224 16.4631 6.15797 16.461C6.15371 16.4588 6.14945 16.4567 6.14518 16.4546C6.13808 16.451 6.1267 16.4453 6.1196 16.4418C6.11534 16.4396 6.11107 16.4375 6.10681 16.4354C6.10254 16.4332 6.09828 16.4311 6.09402 16.429C6.05829 16.4111 6.07859 16.4213 6.04286 16.4034C6.02663 16.3953 6.00795 16.3859 5.99172 16.3778C5.98604 16.375 5.97184 16.3679 5.96616 16.365C5.95291 16.3584 5.95385 16.3589 5.9406 16.3523C5.89518 16.3296 5.96047 16.3622 5.91505 16.3395C5.9037 16.3338 5.90086 16.3324 5.88951 16.3267C5.87439 16.3192 5.85355 16.3087 5.83844 16.3012C5.80444 16.2842 5.8214 16.2927 5.78742 16.2757C5.71935 16.2416 5.82998 16.297 5.76192 16.2629C5.75767 16.2608 5.75342 16.2587 5.74917 16.2566C5.74492 16.2544 5.74068 16.2523 5.73643 16.2502C5.70244 16.2332 5.71947 16.2417 5.68549 16.2247C5.61761 16.1908 5.70247 16.2332 5.6346 16.1993C5.61201 16.188 5.60635 16.1851 5.58378 16.1739C5.4805 16.1222 5.48402 16.124 5.38114 16.0725C5.29112 16.0275 5.3702 16.0671 5.2803 16.0221C5.22664 15.9953 5.28365 16.0238 5.23002 15.997C5.20771 15.9858 5.22722 15.9956 5.20492 15.9844C5.13782 15.9509 5.24694 16.0054 5.17984 15.9719C5.17567 15.9698 5.17149 15.9677 5.16731 15.9656C5.16314 15.9635 5.15896 15.9614 5.15479 15.9594C5.08797 15.9259 5.19659 15.9803 5.12977 15.9469C5.11309 15.9385 5.09644 15.9302 5.0798 15.9219C5.0207 15.8923 5.08902 15.9265 5.02996 15.8969C5.0189 15.8914 4.99124 15.8776 4.98023 15.8721C4.80694 15.7854 4.75755 15.7607 4.58741 15.6757C4.57166 15.6678 4.5063 15.6351 4.49078 15.6274C4.46081 15.6124 4.47265 15.6183 4.44273 15.6033C4.44266 15.6033 4.39489 15.5794 4.39487 15.5794C4.37095 15.5674 4.39492 15.5794 4.37101 15.5675C4.35807 15.561 4.36013 15.562 4.3472 15.5556C4.34324 15.5536 4.33927 15.5516 4.33531 15.5496C4.33135 15.5476 4.32739 15.5457 4.32344 15.5437C4.31948 15.5417 4.31553 15.5397 4.31158 15.5378C4.30762 15.5358 4.30367 15.5338 4.29972 15.5318C4.29963 15.5318 4.25247 15.5082 4.25245 15.5082C4.16862 15.4663 4.28914 15.5265 4.20538 15.4847C4.18286 15.4734 4.13411 15.449 4.11188 15.4379C4.10773 15.4358 4.09277 15.4283 4.08864 15.4263C4.06801 15.416 4.08607 15.425 4.06546 15.4147C3.99372 15.3788 4.09093 15.4274 4.01926 15.3916C4.01542 15.3897 4.01158 15.3878 4.00775 15.3858C4.00391 15.3839 4.00008 15.382 3.99625 15.3801C3.97242 15.3682 3.99711 15.3805 3.9733 15.3686C3.96948 15.3667 3.96566 15.3648 3.96185 15.3629C3.95803 15.361 3.95422 15.3591 3.95041 15.3572C3.94025 15.3521 3.93772 15.3508 3.92758 15.3458C3.88698 15.3255 3.87713 15.3205 3.83686 15.3004C3.62051 15.1922 3.34231 15.0531 3.15121 14.9576C3.08601 14.925 2.89704 14.8305 2.8395 14.8017C2.79501 14.7795 2.84656 14.8052 2.8022 14.7831C2.78459 14.7743 2.80126 14.7826 2.78369 14.7738C2.77152 14.7677 2.77741 14.7707 2.76528 14.7646C2.73802 14.751 2.77419 14.7691 2.74696 14.7554C2.73075 14.7473 2.74493 14.7544 2.72875 14.7463C2.72572 14.7448 2.7227 14.7433 2.71968 14.7418C2.71666 14.7403 2.71364 14.7388 2.71063 14.7373C2.69558 14.7298 2.70763 14.7358 2.69262 14.7283C2.68708 14.7255 2.62655 14.6952 2.62156 14.6927C2.59047 14.6772 2.58269 14.6733 2.55216 14.658L1.65773 16.4469C1.75634 16.4962 1.69738 16.4667 1.79819 16.5171C1.81126 16.5237 1.82111 16.5286 1.83432 16.5352C1.83735 16.5367 1.84038 16.5382 1.84342 16.5397C1.84645 16.5413 1.84949 16.5428 1.85254 16.5443C1.89136 16.5637 1.832 16.534 1.87085 16.5535C1.895 16.5655 1.86507 16.5506 1.88926 16.5627C1.90157 16.5688 1.89543 16.5657 1.90777 16.5719C1.97995 16.608 1.87276 16.5544 1.94508 16.5906C2.01776 16.6269 2.17643 16.7063 2.25678 16.7464C2.28505 16.7606 2.26894 16.7525 2.29732 16.7667C2.30072 16.7684 2.30411 16.7701 2.30751 16.7718C2.31091 16.7735 2.31431 16.7752 2.31772 16.7769C2.34302 16.7895 2.31287 16.7745 2.3382 16.7871C2.35294 16.7945 2.34399 16.79 2.35876 16.7974C2.36219 16.7991 2.36563 16.8008 2.36907 16.8026C2.37251 16.8043 2.37595 16.806 2.3794 16.8077C2.3941 16.8151 2.40612 16.8211 2.42093 16.8285C2.47741 16.8567 2.44802 16.842 2.50492 16.8705C2.55732 16.8967 2.49488 16.8655 2.54738 16.8917C2.55093 16.8935 2.55448 16.8953 2.55804 16.8971C2.5616 16.8988 2.56516 16.9006 2.56872 16.9024C2.57229 16.9042 2.57585 16.906 2.57942 16.9077C2.58299 16.9095 2.58656 16.9113 2.59014 16.9131C2.69183 16.9639 2.83488 17.0355 2.94243 17.0893C2.9827 17.1094 2.99255 17.1143 3.03315 17.1346C3.09388 17.165 3.01806 17.1271 3.07887 17.1575C3.08226 17.1592 3.09842 17.1672 3.10182 17.1689C3.10565 17.1709 3.10949 17.1728 3.11332 17.1747C3.11716 17.1766 3.12099 17.1785 3.12483 17.1805C3.20804 17.2221 3.22656 17.2313 3.31095 17.2735C3.40447 17.3203 3.3115 17.2738 3.4053 17.3207C3.46842 17.3522 3.43706 17.3366 3.50045 17.3683C3.60704 17.4216 3.58542 17.4107 3.69298 17.4645C3.71093 17.4735 3.72354 17.4798 3.74155 17.4888C3.77536 17.5057 3.73207 17.4841 3.76589 17.501C3.77131 17.5037 3.78485 17.5105 3.79028 17.5132C3.812 17.524 3.81739 17.5267 3.83917 17.5376C3.87728 17.5567 3.82554 17.5308 3.86367 17.5499C3.86678 17.5514 3.88509 17.5606 3.88821 17.5621C3.88822 17.5621 3.91277 17.5744 3.91279 17.5744C3.91689 17.5765 3.92099 17.5785 3.92509 17.5806C3.92919 17.5826 3.9333 17.5847 3.9374 17.5867C3.9885 17.6123 3.93558 17.5858 3.98673 17.6114C3.99403 17.615 4.02886 17.6325 4.0362 17.6361C4.04033 17.6382 4.04446 17.6403 4.04859 17.6423C4.05272 17.6444 4.05685 17.6465 4.06099 17.6485C4.072 17.654 4.07477 17.6554 4.0858 17.6609C4.09209 17.6641 4.17893 17.7075 4.18538 17.7107C4.23423 17.7351 4.16149 17.6988 4.21035 17.7232C4.21451 17.7253 4.21867 17.7274 4.22284 17.7295C4.22701 17.7315 4.23117 17.7336 4.23534 17.7357C4.28724 17.7617 4.23348 17.7348 4.28542 17.7607C4.28959 17.7628 4.29377 17.7649 4.29795 17.767C4.30213 17.7691 4.30631 17.7712 4.31049 17.7733C4.31467 17.7754 4.31886 17.7775 4.32304 17.7796C4.32722 17.7816 4.33141 17.7837 4.33559 17.7858C4.33978 17.7879 4.34397 17.79 4.34816 17.7921C4.35234 17.7942 4.35653 17.7963 4.36072 17.7984C4.37989 17.808 4.3667 17.8014 4.38587 17.811C4.40826 17.8222 4.38866 17.8124 4.41105 17.8236C4.41525 17.8257 4.41945 17.8278 4.42365 17.8299C4.42785 17.832 4.43205 17.8341 4.43625 17.8362C4.49355 17.8648 4.42937 17.8327 4.48671 17.8614C4.6661 17.9511 4.71227 17.9742 4.89299 18.0645C4.95349 18.0948 5.03663 18.1363 5.09729 18.1667C5.11497 18.1755 5.10518 18.1706 5.12286 18.1795C5.13044 18.1833 5.14086 18.1885 5.14843 18.1923C5.17117 18.2036 5.17685 18.2065 5.19959 18.2178C5.26458 18.2503 5.23693 18.2365 5.30192 18.269C5.36251 18.2993 5.29251 18.2643 5.35309 18.2946C5.35736 18.2967 5.36162 18.2988 5.36589 18.301C5.37015 18.3031 5.37441 18.3052 5.37868 18.3074C5.38294 18.3095 5.3872 18.3116 5.39147 18.3138C5.39573 18.3159 5.39999 18.318 5.40426 18.3202C5.40852 18.3223 5.41278 18.3244 5.41705 18.3266C5.42131 18.3287 5.42557 18.3308 5.42983 18.333C5.4341 18.3351 5.43836 18.3372 5.44262 18.3393C5.44688 18.3415 5.45115 18.3436 5.45541 18.3457C5.45967 18.3479 5.46393 18.35 5.46819 18.3521C5.47245 18.3543 5.47672 18.3564 5.48098 18.3585C5.48524 18.3607 5.4895 18.3628 5.49376 18.3649C5.49802 18.367 5.50228 18.3692 5.50654 18.3713C5.537 18.3865 5.68052 18.4583 5.71081 18.4734C5.7367 18.4864 5.78687 18.5115 5.8127 18.5244C5.85418 18.5451 5.79667 18.5164 5.83814 18.5371C5.85697 18.5465 5.84474 18.5404 5.86357 18.5498C5.91629 18.5762 5.86168 18.5489 5.91438 18.5752C5.93697 18.5865 5.99329 18.6147 6.0158 18.6259C6.0458 18.6409 6.03642 18.6362 6.0664 18.6512C6.11139 18.6737 6.04668 18.6414 6.09167 18.6639C6.09588 18.666 6.10009 18.6681 6.10429 18.6702C6.1085 18.6723 6.11271 18.6744 6.11692 18.6765C6.13374 18.6849 6.12533 18.6807 6.14214 18.6891C6.14635 18.6912 6.15055 18.6933 6.15475 18.6954C6.15895 18.6975 6.16315 18.6996 6.16735 18.7017C6.19348 18.7148 6.1916 18.7138 6.21769 18.7269C6.22189 18.729 6.22608 18.7311 6.23027 18.7332C6.23445 18.7353 6.23864 18.7374 6.24283 18.7394C6.24702 18.7415 6.2512 18.7436 6.25539 18.7457C6.25957 18.7478 6.26376 18.7499 6.26794 18.752C6.27212 18.7541 6.27631 18.7562 6.28049 18.7583C6.28467 18.7604 6.28885 18.7625 6.29303 18.7645C6.31308 18.7746 6.29804 18.7671 6.31809 18.7771C6.31818 18.7771 6.36807 18.8021 6.36812 18.8021C6.37229 18.8042 6.37645 18.8063 6.38062 18.8083C6.38478 18.8104 6.38894 18.8125 6.3931 18.8146C6.39726 18.8167 6.40142 18.8187 6.40558 18.8208C6.40974 18.8229 6.4139 18.825 6.41805 18.8271C6.43466 18.8354 6.42637 18.8312 6.44297 18.8395C6.46953 18.8528 6.44131 18.8387 6.46786 18.852C6.47201 18.854 6.47615 18.8561 6.48029 18.8582C6.48444 18.8603 6.48858 18.8623 6.49272 18.8644C6.50376 18.8699 6.50652 18.8713 6.51755 18.8768C6.66401 18.95 6.7667 19.0014 6.90998 19.073C6.91901 19.0775 7.09421 19.1651 7.10228 19.1692C7.1195 19.1778 7.1089 19.1725 7.12611 19.1811C7.14991 19.193 7.12609 19.1811 7.14989 19.193C7.20607 19.2211 7.14118 19.1886 7.1973 19.2167C7.22529 19.2307 7.26379 19.2499 7.29151 19.2638C7.45658 19.3463 7.49933 19.3677 7.65941 19.4477L8.55384 17.6589ZM1.65836 3.55279C0.642805 4.06056 0 5.09728 0 6.23449H2C2 5.85661 2.2132 5.51143 2.55279 5.34164L1.65836 3.55279ZM0 13.7669C0 14.9044 0.642501 15.9393 1.65773 16.4469L2.55216 14.658C2.21225 14.4881 2 14.1444 2 13.7669H0ZM9.44721 17.6584C9.16511 17.7994 8.83479 17.7994 8.55384 17.6589L7.65941 19.4477C8.50457 19.8703 9.49763 19.8692 10.3416 19.4472L9.44721 17.6584ZM16 13.7639C16 14.1427 15.786 14.489 15.4472 14.6584L16.3416 16.4472C17.358 15.939 18 14.9002 18 13.7639H16ZM15.4472 5.34164C15.786 5.51103 16 5.8573 16 6.23607H18C18 5.09975 17.358 4.06096 16.3416 3.55279L15.4472 5.34164ZM8.55279 2.34164C8.83431 2.20088 9.16569 2.20088 9.44721 2.34164L10.3416 0.552786C9.49706 0.130495 8.50294 0.130495 7.65836 0.552786L8.55279 2.34164Z" fill="currentColor"/>
</svg>
