<svg viewBox="0 0 576 512" xmlns="http://www.w3.org/2000/svg"><path d="M301.2 34.85c-11.5-5.19-25.02-3.122-34.44 5.253L131.8 160H48c-26.51 0-48 21.49-48 47.1v95.1c0 26.51 21.49 47.1 48 47.1h83.84l134.9 119.9c5.98 5.31 13.58 8.09 21.26 8.09 4.43 0 8.97-.94 13.17-2.85 11.5-5.16 18.82-16.56 18.82-29.16V63.99c-.89-12.59-7.29-24-18.79-29.15ZM513.9 255.1l47.03-47.03c9.375-9.375 9.375-24.56 0-33.94 -9.375-9.38-24.56-9.375-33.94 0L480 222.1 432.1 175c-9.375-9.375-24.56-9.375-33.94 0 -9.38 9.375-9.375 24.56 0 33.94l47.03 47.03L398.16 303c-9.375 9.375-9.375 24.56 0 33.94 9.37 9.37 24.56 9.38 33.94 0L480 289.9l47.03 47.03c9.37 9.37 24.56 9.38 33.94 0 9.375-9.375 9.375-24.56 0-33.94L513.9 255.1Z"/></svg>
