<svg width="24" height="24" viewBox="0 0 24 24" fill="none" xmlns="http://www.w3.org/2000/svg">
<path d="M4 14.5V5.5M9 5H8.5C7.39543 5 6.5 5.89543 6.5 7V14.0668C6.5 14.3523 6.56113 14.6345 6.67927 14.8944L8.46709 18.8276C8.79163 19.5416 9.50354 20 10.2878 20H10.8815C12.2002 20 13.158 18.746 12.811 17.4738L12.3445 15.7631C12.171 15.127 12.6499 14.5 13.3093 14.5H17V14.5C19.1704 14.5 20.489 12.1076 19.33 10.2726L16.5517 5.87354C16.2083 5.32974 15.61 5 14.9668 5H9Z" stroke="currentColor" stroke-width="2" stroke-linecap="round"/>
</svg>
