<svg width="24" height="24" viewBox="0 0 24 24" fill="none" xmlns="http://www.w3.org/2000/svg">
<path d="M4 10V18M9 19V19C7.89543 19 7 18.1046 7 17V9.38516C7 9.13073 7.04855 8.87862 7.14305 8.64238L8.39102 5.52246C8.75882 4.60294 9.64939 4 10.6397 4V4C12.2928 4 13.4602 5.61954 12.9374 7.18783L12.2857 9.14286C12.1452 9.56454 12.459 10 12.9035 10H17V10C19.1372 10 20.412 12.382 19.2265 14.1603L16.5229 18.2156C16.1962 18.7057 15.6462 19 15.0573 19H9Z" stroke="currentColor" stroke-width="2" stroke-linecap="round"/>
</svg>
