<svg width="24" height="24" viewBox="0 0 24 24" fill="none" xmlns="http://www.w3.org/2000/svg">
<path d="M19.457 6.143L19.9427 5.26889L19.9426 5.26883L19.457 6.143ZM13.457 2.81L13.9426 1.93583L13.9424 1.93571L13.457 2.81ZM10.543 2.81L10.0576 1.93571L10.0574 1.93583L10.543 2.81ZM4.543 6.143L4.05739 5.26883L4.05728 5.26889L4.543 6.143ZM15 21V22C15.5523 22 16 21.5523 16 21H15ZM9 21H8C8 21.5523 8.44772 22 9 22V21ZM6 20C4.89528 20 4 19.1047 4 18H2C2 20.2093 3.79072 22 6 22V20ZM18 20H6V22H18V20ZM20 18C20 19.1047 19.1047 20 18 20V22C20.2093 22 22 20.2093 22 18H20ZM20 8.76501V18H22V8.76501H20ZM18.9713 7.01712C19.606 7.36984 20 8.03935 20 8.76501H22C22 7.31266 21.212 5.97417 19.9427 5.26889L18.9713 7.01712ZM12.9714 3.68418L18.9714 7.01718L19.9426 5.26883L13.9426 1.93583L12.9714 3.68418ZM11.0284 3.6843C11.6325 3.34891 12.3675 3.34891 12.9716 3.6843L13.9424 1.93571C12.7345 1.2651 11.2655 1.2651 10.0576 1.93571L11.0284 3.6843ZM5.02861 7.01718L11.0286 3.68418L10.0574 1.93583L4.05739 5.26883L5.02861 7.01718ZM4 8.76501C4 8.03854 4.39379 7.36993 5.02872 7.01712L4.05728 5.26889C2.78821 5.97408 2 7.31147 2 8.76501H4ZM4 18V8.76501H2V18H4ZM15 20H9V22H15V20ZM14 14.25V21H16V14.25H14ZM13 13C13.4452 13 14 13.4452 14 14.25H16C16 12.5686 14.7648 11 13 11V13ZM11 13H13V11H11V13ZM10 14.25C10 13.4452 10.5548 13 11 13V11C9.23524 11 8 12.5686 8 14.25H10ZM10 21V14.25H8V21H10Z" fill="currentColor"/>
</svg>
