<svg width="24" height="24" viewBox="0 0 24 24" fill="none" xmlns="http://www.w3.org/2000/svg">
<path d="M12 14C13.1046 14 14 13.1046 14 12C14 10.8954 13.1046 10 12 10C10.8954 10 10 10.8954 10 12C10 13.1046 10.8954 14 12 14Z" fill="currentColor"/>
<path d="M14 17C14 15.895 13.105 15 12 15C10.895 15 10 15.895 10 17C10 17.749 10.677 20.83 10.677 20.83L10.683 20.829C10.762 21.49 11.318 22.004 12 22.004C12.682 22.004 13.238 21.49 13.317 20.829L13.323 20.83C13.323 20.83 14 17.741 14 17Z" fill="currentColor"/>
<path d="M11.271 6.043C8.675 6.351 6.517 8.397 6.086 10.975C5.83 12.507 6.161 13.953 6.888 15.131C7.322 15.834 8.361 15.775 8.684 15.015C8.808 14.724 8.798 14.386 8.628 14.12C8.037 13.197 7.803 12.029 8.188 10.781C8.597 9.455 9.718 8.412 11.071 8.105C13.679 7.515 16 9.491 16 12C16 12.783 15.764 13.506 15.371 14.121C15.201 14.386 15.193 14.725 15.316 15.015C15.639 15.775 16.678 15.835 17.112 15.132C17.674 14.22 18 13.148 18 12C18 8.451 14.904 5.613 11.271 6.043Z" fill="currentColor"/>
<path d="M10.095 2.177C6.08201 2.922 2.87 6.169 2.16 10.189C1.384 14.584 3.502 18.578 6.921 20.601C7.66 21.038 8.572 20.381 8.406 19.539C8.35 19.256 8.17 19.021 7.922 18.873C5.231 17.271 3.551 14.14 4.106 10.682C4.665 7.203 7.58001 4.443 11.081 4.05C15.902 3.511 20 7.286 20 12C20 14.923 18.422 17.48 16.075 18.875C15.828 19.022 15.647 19.257 15.592 19.539C15.426 20.38 16.335 21.041 17.073 20.604C20.019 18.864 22 15.662 22 12C22 5.863 16.443 0.999003 10.095 2.177Z" fill="currentColor"/>
</svg>
