<svg width="24" height="24" viewBox="0 0 24 24" fill="none" xmlns="http://www.w3.org/2000/svg">
<path d="M3 10.5V13.5C3 14.3284 3.67157 15 4.5 15H6.61626L10.4966 18.4923C11.4618 19.361 13 18.676 13 17.3773V6.62268C13 5.32402 11.4618 4.63899 10.4966 5.50774L10.4966 5.50774L6.61626 9L4.5 9C3.67157 9 3 9.67157 3 10.5Z" stroke="currentColor" stroke-width="2" stroke-linecap="round"/>
<path d="M16.5 9.5C16.5 9.5 17.5 10.5 17.5 12C17.5 13.5 16.5 14.5 16.5 14.5M19 7C19 7 21 9 21 12C21 15 19 17 19 17" stroke="currentColor" stroke-width="2" stroke-linecap="round"/>
</svg>
